<?xml version="1.0" encoding="utf-8" standalone="no"?>
<!DOCTYPE svg PUBLIC "-//W3C//DTD SVG 1.1//EN"
  "http://www.w3.org/Graphics/SVG/1.1/DTD/svg11.dtd">
<svg xmlns:xlink="http://www.w3.org/1999/xlink" width="541.199314pt" height="274.79952pt" viewBox="0 0 541.199314 274.79952" xmlns="http://www.w3.org/2000/svg" version="1.1">
 <metadata>
  <rdf:RDF xmlns:dc="http://purl.org/dc/elements/1.1/" xmlns:cc="http://creativecommons.org/ns#" xmlns:rdf="http://www.w3.org/1999/02/22-rdf-syntax-ns#">
   <cc:Work>
    <dc:type rdf:resource="http://purl.org/dc/dcmitype/StillImage"/>
    <dc:date>2026-06-21T10:03:04.303283</dc:date>
    <dc:format>image/svg+xml</dc:format>
    <dc:creator>
     <cc:Agent>
      <dc:title>Matplotlib v3.10.8, https://matplotlib.org/</dc:title>
     </cc:Agent>
    </dc:creator>
   </cc:Work>
  </rdf:RDF>
 </metadata>
 <defs>
  <style type="text/css">*{stroke-linejoin: round; stroke-linecap: butt}</style>
 </defs>
 <g id="figure_1">
  <g id="patch_1">
   <path d="M 0 274.79952 
L 541.199314 274.79952 
L 541.199314 -0 
L 0 -0 
z
" style="fill: #ffffff"/>
  </g>
  <g id="axes_1">
   <g id="patch_2">
    <path d="M 46.257969 243.628739 
L 426.487229 243.628739 
L 426.487229 7.2 
L 46.257969 7.2 
z
" style="fill: #ffffff"/>
   </g>
   <g id="matplotlib.axis_1">
    <g id="xtick_1">
     <g id="line2d_1">
      <defs>
       <path id="m3f283c157d" d="M 0 0 
L 0 3.5 
" style="stroke: #000000; stroke-width: 0.8"/>
      </defs>
      <g>
       <use xlink:href="#m3f283c157d" x="48.512292" y="243.628739" style="stroke: #000000; stroke-width: 0.8"/>
      </g>
     </g>
     <g id="text_1">
      <text style="font-size: 7px; font-family: 'Arial', 'Helvetica', 'DejaVu Sans', sans-serif; text-anchor: middle" x="48.512292" y="255.639207" transform="rotate(-0 48.512292 255.639207)">0</text>
     </g>
    </g>
    <g id="xtick_2">
     <g id="line2d_2">
      <g>
       <use xlink:href="#m3f283c157d" x="123.656415" y="243.628739" style="stroke: #000000; stroke-width: 0.8"/>
      </g>
     </g>
     <g id="text_2">
      <text style="font-size: 7px; font-family: 'Arial', 'Helvetica', 'DejaVu Sans', sans-serif; text-anchor: middle" x="123.656415" y="255.639207" transform="rotate(-0 123.656415 255.639207)">5</text>
     </g>
    </g>
    <g id="xtick_3">
     <g id="line2d_3">
      <g>
       <use xlink:href="#m3f283c157d" x="198.800538" y="243.628739" style="stroke: #000000; stroke-width: 0.8"/>
      </g>
     </g>
     <g id="text_3">
      <text style="font-size: 7px; font-family: 'Arial', 'Helvetica', 'DejaVu Sans', sans-serif; text-anchor: middle" x="198.800538" y="255.639207" transform="rotate(-0 198.800538 255.639207)">10</text>
     </g>
    </g>
    <g id="xtick_4">
     <g id="line2d_4">
      <g>
       <use xlink:href="#m3f283c157d" x="273.94466" y="243.628739" style="stroke: #000000; stroke-width: 0.8"/>
      </g>
     </g>
     <g id="text_4">
      <text style="font-size: 7px; font-family: 'Arial', 'Helvetica', 'DejaVu Sans', sans-serif; text-anchor: middle" x="273.94466" y="255.639207" transform="rotate(-0 273.94466 255.639207)">15</text>
     </g>
    </g>
    <g id="xtick_5">
     <g id="line2d_5">
      <g>
       <use xlink:href="#m3f283c157d" x="349.088783" y="243.628739" style="stroke: #000000; stroke-width: 0.8"/>
      </g>
     </g>
     <g id="text_5">
      <text style="font-size: 7px; font-family: 'Arial', 'Helvetica', 'DejaVu Sans', sans-serif; text-anchor: middle" x="349.088783" y="255.639207" transform="rotate(-0 349.088783 255.639207)">20</text>
     </g>
    </g>
    <g id="xtick_6">
     <g id="line2d_6">
      <g>
       <use xlink:href="#m3f283c157d" x="424.232905" y="243.628739" style="stroke: #000000; stroke-width: 0.8"/>
      </g>
     </g>
     <g id="text_6">
      <text style="font-size: 7px; font-family: 'Arial', 'Helvetica', 'DejaVu Sans', sans-serif; text-anchor: middle" x="424.232905" y="255.639207" transform="rotate(-0 424.232905 255.639207)">25</text>
     </g>
    </g>
    <g id="text_7">
     <text style="font-size: 7px; font-family: 'Arial', 'Helvetica', 'DejaVu Sans', sans-serif; text-anchor: middle" x="236.372599" y="266.126239" transform="rotate(-0 236.372599 266.126239)">Lead (months)</text>
    </g>
   </g>
   <g id="matplotlib.axis_2">
    <g id="ytick_1">
     <g id="line2d_7">
      <defs>
       <path id="m5128f7f614" d="M 0 0 
L -3.5 0 
" style="stroke: #000000; stroke-width: 0.8"/>
      </defs>
      <g>
       <use xlink:href="#m5128f7f614" x="46.257969" y="233.047068" style="stroke: #000000; stroke-width: 0.8"/>
      </g>
     </g>
     <g id="text_8">
      <text style="font-size: 7px; font-family: 'Arial', 'Helvetica', 'DejaVu Sans', sans-serif; text-anchor: end" x="39.257969" y="235.552303" transform="rotate(-0 39.257969 235.552303)">0.0000</text>
     </g>
    </g>
    <g id="ytick_2">
     <g id="line2d_8">
      <g>
       <use xlink:href="#m5128f7f614" x="46.257969" y="196.616893" style="stroke: #000000; stroke-width: 0.8"/>
      </g>
     </g>
     <g id="text_9">
      <text style="font-size: 7px; font-family: 'Arial', 'Helvetica', 'DejaVu Sans', sans-serif; text-anchor: end" x="39.257969" y="199.122127" transform="rotate(-0 39.257969 199.122127)">0.0002</text>
     </g>
    </g>
    <g id="ytick_3">
     <g id="line2d_9">
      <g>
       <use xlink:href="#m5128f7f614" x="46.257969" y="160.186717" style="stroke: #000000; stroke-width: 0.8"/>
      </g>
     </g>
     <g id="text_10">
      <text style="font-size: 7px; font-family: 'Arial', 'Helvetica', 'DejaVu Sans', sans-serif; text-anchor: end" x="39.257969" y="162.691951" transform="rotate(-0 39.257969 162.691951)">0.0004</text>
     </g>
    </g>
    <g id="ytick_4">
     <g id="line2d_10">
      <g>
       <use xlink:href="#m5128f7f614" x="46.257969" y="123.756541" style="stroke: #000000; stroke-width: 0.8"/>
      </g>
     </g>
     <g id="text_11">
      <text style="font-size: 7px; font-family: 'Arial', 'Helvetica', 'DejaVu Sans', sans-serif; text-anchor: end" x="39.257969" y="126.261775" transform="rotate(-0 39.257969 126.261775)">0.0006</text>
     </g>
    </g>
    <g id="ytick_5">
     <g id="line2d_11">
      <g>
       <use xlink:href="#m5128f7f614" x="46.257969" y="87.326365" style="stroke: #000000; stroke-width: 0.8"/>
      </g>
     </g>
     <g id="text_12">
      <text style="font-size: 7px; font-family: 'Arial', 'Helvetica', 'DejaVu Sans', sans-serif; text-anchor: end" x="39.257969" y="89.831599" transform="rotate(-0 39.257969 89.831599)">0.0008</text>
     </g>
    </g>
    <g id="ytick_6">
     <g id="line2d_12">
      <g>
       <use xlink:href="#m5128f7f614" x="46.257969" y="50.896189" style="stroke: #000000; stroke-width: 0.8"/>
      </g>
     </g>
     <g id="text_13">
      <text style="font-size: 7px; font-family: 'Arial', 'Helvetica', 'DejaVu Sans', sans-serif; text-anchor: end" x="39.257969" y="53.401424" transform="rotate(-0 39.257969 53.401424)">0.0010</text>
     </g>
    </g>
    <g id="ytick_7">
     <g id="line2d_13">
      <g>
       <use xlink:href="#m5128f7f614" x="46.257969" y="14.466013" style="stroke: #000000; stroke-width: 0.8"/>
      </g>
     </g>
     <g id="text_14">
      <text style="font-size: 7px; font-family: 'Arial', 'Helvetica', 'DejaVu Sans', sans-serif; text-anchor: end" x="39.257969" y="16.971248" transform="rotate(-0 39.257969 16.971248)">0.0012</text>
     </g>
    </g>
    <g id="text_15">
     <!-- Third-order EI interaction $\Delta_3$ (bits) -->
     <g transform="translate(12.31 177.949369) rotate(-90)">
      <text>
       <tspan x="0" y="-0.890625" style="font-size: 7px; font-family: 'Arial'">T</tspan>
       <tspan x="4.275879" y="-0.890625" style="font-size: 7px; font-family: 'Arial'">h</tspan>
       <tspan x="8.168945" y="-0.890625" style="font-size: 7px; font-family: 'Arial'">i</tspan>
       <tspan x="9.724121" y="-0.890625" style="font-size: 7px; font-family: 'Arial'">r</tspan>
       <tspan x="12.055176" y="-0.890625" style="font-size: 7px; font-family: 'Arial'">d</tspan>
       <tspan x="15.948242" y="-0.890625" style="font-size: 7px; font-family: 'Arial'">-</tspan>
       <tspan x="18.279297" y="-0.890625" style="font-size: 7px; font-family: 'Arial'">o</tspan>
       <tspan x="22.172363" y="-0.890625" style="font-size: 7px; font-family: 'Arial'">r</tspan>
       <tspan x="24.503418" y="-0.890625" style="font-size: 7px; font-family: 'Arial'">d</tspan>
       <tspan x="28.396484" y="-0.890625" style="font-size: 7px; font-family: 'Arial'">e</tspan>
       <tspan x="32.289551" y="-0.890625" style="font-size: 7px; font-family: 'Arial'">r</tspan>
       <tspan x="34.620605" y="-0.890625" style="font-size: 7px; font-family: 'Arial'"> </tspan>
       <tspan x="36.56543" y="-0.890625" style="font-size: 7px; font-family: 'Arial'">E</tspan>
       <tspan x="41.234375" y="-0.890625" style="font-size: 7px; font-family: 'Arial'">I</tspan>
       <tspan x="43.179199" y="-0.890625" style="font-size: 7px; font-family: 'Arial'"> </tspan>
       <tspan x="45.124023" y="-0.890625" style="font-size: 7px; font-family: 'Arial'">i</tspan>
       <tspan x="46.679199" y="-0.890625" style="font-size: 7px; font-family: 'Arial'">n</tspan>
       <tspan x="50.572266" y="-0.890625" style="font-size: 7px; font-family: 'Arial'">t</tspan>
       <tspan x="52.51709" y="-0.890625" style="font-size: 7px; font-family: 'Arial'">e</tspan>
       <tspan x="56.410156" y="-0.890625" style="font-size: 7px; font-family: 'Arial'">r</tspan>
       <tspan x="58.741211" y="-0.890625" style="font-size: 7px; font-family: 'Arial'">a</tspan>
       <tspan x="62.634277" y="-0.890625" style="font-size: 7px; font-family: 'Arial'">c</tspan>
       <tspan x="66.134277" y="-0.890625" style="font-size: 7px; font-family: 'Arial'">t</tspan>
       <tspan x="68.079102" y="-0.890625" style="font-size: 7px; font-family: 'Arial'">i</tspan>
       <tspan x="69.634277" y="-0.890625" style="font-size: 7px; font-family: 'Arial'">o</tspan>
       <tspan x="73.527344" y="-0.890625" style="font-size: 7px; font-family: 'Arial'">n</tspan>
       <tspan x="77.42041" y="-0.890625" style="font-size: 7px; font-family: 'Arial'"> </tspan>
       <tspan x="87.529736" y="-0.890625" style="font-size: 7px; font-family: 'Arial'"> </tspan>
       <tspan x="89.474561" y="-0.890625" style="font-size: 7px; font-family: 'Arial'">(</tspan>
       <tspan x="91.805615" y="-0.890625" style="font-size: 7px; font-family: 'Arial'">b</tspan>
       <tspan x="95.698682" y="-0.890625" style="font-size: 7px; font-family: 'Arial'">i</tspan>
       <tspan x="97.253857" y="-0.890625" style="font-size: 7px; font-family: 'Arial'">t</tspan>
       <tspan x="99.198682" y="-0.890625" style="font-size: 7px; font-family: 'Arial'">s</tspan>
       <tspan x="102.698682" y="-0.890625" style="font-size: 7px; font-family: 'Arial'">)</tspan>
       <tspan x="79.365234" y="-0.890625" style="font-size: 7px; font-family: 'DejaVu Sans'">Δ</tspan>
       <tspan x="84.220801" y="0.257812" style="font-size: 4.9px; font-family: 'DejaVu Sans'">3</tspan>
      </text>
     </g>
    </g>
   </g>
   <g id="line2d_14">
    <path d="M 63.541117 32.761093 
L 78.569941 22.287249 
L 93.598766 17.946761 
L 108.627591 88.654559 
L 123.656415 89.411163 
L 138.68524 139.414489 
L 153.714064 216.302754 
L 168.742889 232.881978 
L 183.771713 230.498864 
L 198.800538 228.543154 
L 213.829362 229.245603 
L 228.858187 228.07323 
L 243.887011 228.239068 
L 258.915836 228.971088 
L 273.94466 228.586223 
L 288.973485 228.017341 
L 304.002309 227.793011 
L 319.031134 222.985229 
L 334.059958 217.026663 
L 349.088783 208.832367 
L 364.117607 204.063741 
L 379.146432 203.538357 
L 394.175256 197.780885 
L 409.204081 206.900311 
" clip-path="url(#pe5231c9f35)" style="fill: none; stroke: #4c78a8; stroke-width: 1.2; stroke-linecap: square"/>
    <defs>
     <path id="m0b53941702" d="M 0 1.1 
C 0.291723 1.1 0.571538 0.984097 0.777817 0.777817 
C 0.984097 0.571538 1.1 0.291723 1.1 0 
C 1.1 -0.291723 0.984097 -0.571538 0.777817 -0.777817 
C 0.571538 -0.984097 0.291723 -1.1 0 -1.1 
C -0.291723 -1.1 -0.571538 -0.984097 -0.777817 -0.777817 
C -0.984097 -0.571538 -1.1 -0.291723 -1.1 0 
C -1.1 0.291723 -0.984097 0.571538 -0.777817 0.777817 
C -0.571538 0.984097 -0.291723 1.1 0 1.1 
z
" style="stroke: #4c78a8"/>
    </defs>
    <g clip-path="url(#pe5231c9f35)">
     <use xlink:href="#m0b53941702" x="63.541117" y="32.761093" style="fill: #4c78a8; stroke: #4c78a8"/>
     <use xlink:href="#m0b53941702" x="78.569941" y="22.287249" style="fill: #4c78a8; stroke: #4c78a8"/>
     <use xlink:href="#m0b53941702" x="93.598766" y="17.946761" style="fill: #4c78a8; stroke: #4c78a8"/>
     <use xlink:href="#m0b53941702" x="108.627591" y="88.654559" style="fill: #4c78a8; stroke: #4c78a8"/>
     <use xlink:href="#m0b53941702" x="123.656415" y="89.411163" style="fill: #4c78a8; stroke: #4c78a8"/>
     <use xlink:href="#m0b53941702" x="138.68524" y="139.414489" style="fill: #4c78a8; stroke: #4c78a8"/>
     <use xlink:href="#m0b53941702" x="153.714064" y="216.302754" style="fill: #4c78a8; stroke: #4c78a8"/>
     <use xlink:href="#m0b53941702" x="168.742889" y="232.881978" style="fill: #4c78a8; stroke: #4c78a8"/>
     <use xlink:href="#m0b53941702" x="183.771713" y="230.498864" style="fill: #4c78a8; stroke: #4c78a8"/>
     <use xlink:href="#m0b53941702" x="198.800538" y="228.543154" style="fill: #4c78a8; stroke: #4c78a8"/>
     <use xlink:href="#m0b53941702" x="213.829362" y="229.245603" style="fill: #4c78a8; stroke: #4c78a8"/>
     <use xlink:href="#m0b53941702" x="228.858187" y="228.07323" style="fill: #4c78a8; stroke: #4c78a8"/>
     <use xlink:href="#m0b53941702" x="243.887011" y="228.239068" style="fill: #4c78a8; stroke: #4c78a8"/>
     <use xlink:href="#m0b53941702" x="258.915836" y="228.971088" style="fill: #4c78a8; stroke: #4c78a8"/>
     <use xlink:href="#m0b53941702" x="273.94466" y="228.586223" style="fill: #4c78a8; stroke: #4c78a8"/>
     <use xlink:href="#m0b53941702" x="288.973485" y="228.017341" style="fill: #4c78a8; stroke: #4c78a8"/>
     <use xlink:href="#m0b53941702" x="304.002309" y="227.793011" style="fill: #4c78a8; stroke: #4c78a8"/>
     <use xlink:href="#m0b53941702" x="319.031134" y="222.985229" style="fill: #4c78a8; stroke: #4c78a8"/>
     <use xlink:href="#m0b53941702" x="334.059958" y="217.026663" style="fill: #4c78a8; stroke: #4c78a8"/>
     <use xlink:href="#m0b53941702" x="349.088783" y="208.832367" style="fill: #4c78a8; stroke: #4c78a8"/>
     <use xlink:href="#m0b53941702" x="364.117607" y="204.063741" style="fill: #4c78a8; stroke: #4c78a8"/>
     <use xlink:href="#m0b53941702" x="379.146432" y="203.538357" style="fill: #4c78a8; stroke: #4c78a8"/>
     <use xlink:href="#m0b53941702" x="394.175256" y="197.780885" style="fill: #4c78a8; stroke: #4c78a8"/>
     <use xlink:href="#m0b53941702" x="409.204081" y="206.900311" style="fill: #4c78a8; stroke: #4c78a8"/>
    </g>
   </g>
   <g id="line2d_15">
    <path d="M 46.257969 181.614799 
L 426.487229 181.614799 
" clip-path="url(#pe5231c9f35)" style="fill: none; stroke-dasharray: 0.7,1.155; stroke-dashoffset: 0; stroke: #4c78a8; stroke-opacity: 0.55; stroke-width: 0.7"/>
   </g>
   <g id="line2d_16">
    <path d="M 63.541117 106.269041 
L 78.569941 89.883967 
L 93.598766 70.134919 
L 108.627591 109.999202 
L 123.656415 139.867057 
L 138.68524 166.276724 
L 153.714064 197.844203 
L 168.742889 211.114643 
L 183.771713 217.863627 
L 198.800538 221.350416 
L 213.829362 223.314924 
L 228.858187 224.297718 
L 243.887011 225.189785 
L 258.915836 224.228703 
L 273.94466 222.646785 
L 288.973485 223.379846 
L 304.002309 222.298181 
L 319.031134 218.943742 
L 334.059958 214.47183 
L 349.088783 210.482853 
L 364.117607 206.816857 
L 379.146432 207.065048 
L 394.175256 201.331881 
L 409.204081 208.894327 
" clip-path="url(#pe5231c9f35)" style="fill: none; stroke: #f58518; stroke-width: 1.2; stroke-linecap: square"/>
    <defs>
     <path id="mb03005b9a5" d="M 0 1.1 
C 0.291723 1.1 0.571538 0.984097 0.777817 0.777817 
C 0.984097 0.571538 1.1 0.291723 1.1 0 
C 1.1 -0.291723 0.984097 -0.571538 0.777817 -0.777817 
C 0.571538 -0.984097 0.291723 -1.1 0 -1.1 
C -0.291723 -1.1 -0.571538 -0.984097 -0.777817 -0.777817 
C -0.984097 -0.571538 -1.1 -0.291723 -1.1 0 
C -1.1 0.291723 -0.984097 0.571538 -0.777817 0.777817 
C -0.571538 0.984097 -0.291723 1.1 0 1.1 
z
" style="stroke: #f58518"/>
    </defs>
    <g clip-path="url(#pe5231c9f35)">
     <use xlink:href="#mb03005b9a5" x="63.541117" y="106.269041" style="fill: #f58518; stroke: #f58518"/>
     <use xlink:href="#mb03005b9a5" x="78.569941" y="89.883967" style="fill: #f58518; stroke: #f58518"/>
     <use xlink:href="#mb03005b9a5" x="93.598766" y="70.134919" style="fill: #f58518; stroke: #f58518"/>
     <use xlink:href="#mb03005b9a5" x="108.627591" y="109.999202" style="fill: #f58518; stroke: #f58518"/>
     <use xlink:href="#mb03005b9a5" x="123.656415" y="139.867057" style="fill: #f58518; stroke: #f58518"/>
     <use xlink:href="#mb03005b9a5" x="138.68524" y="166.276724" style="fill: #f58518; stroke: #f58518"/>
     <use xlink:href="#mb03005b9a5" x="153.714064" y="197.844203" style="fill: #f58518; stroke: #f58518"/>
     <use xlink:href="#mb03005b9a5" x="168.742889" y="211.114643" style="fill: #f58518; stroke: #f58518"/>
     <use xlink:href="#mb03005b9a5" x="183.771713" y="217.863627" style="fill: #f58518; stroke: #f58518"/>
     <use xlink:href="#mb03005b9a5" x="198.800538" y="221.350416" style="fill: #f58518; stroke: #f58518"/>
     <use xlink:href="#mb03005b9a5" x="213.829362" y="223.314924" style="fill: #f58518; stroke: #f58518"/>
     <use xlink:href="#mb03005b9a5" x="228.858187" y="224.297718" style="fill: #f58518; stroke: #f58518"/>
     <use xlink:href="#mb03005b9a5" x="243.887011" y="225.189785" style="fill: #f58518; stroke: #f58518"/>
     <use xlink:href="#mb03005b9a5" x="258.915836" y="224.228703" style="fill: #f58518; stroke: #f58518"/>
     <use xlink:href="#mb03005b9a5" x="273.94466" y="222.646785" style="fill: #f58518; stroke: #f58518"/>
     <use xlink:href="#mb03005b9a5" x="288.973485" y="223.379846" style="fill: #f58518; stroke: #f58518"/>
     <use xlink:href="#mb03005b9a5" x="304.002309" y="222.298181" style="fill: #f58518; stroke: #f58518"/>
     <use xlink:href="#mb03005b9a5" x="319.031134" y="218.943742" style="fill: #f58518; stroke: #f58518"/>
     <use xlink:href="#mb03005b9a5" x="334.059958" y="214.47183" style="fill: #f58518; stroke: #f58518"/>
     <use xlink:href="#mb03005b9a5" x="349.088783" y="210.482853" style="fill: #f58518; stroke: #f58518"/>
     <use xlink:href="#mb03005b9a5" x="364.117607" y="206.816857" style="fill: #f58518; stroke: #f58518"/>
     <use xlink:href="#mb03005b9a5" x="379.146432" y="207.065048" style="fill: #f58518; stroke: #f58518"/>
     <use xlink:href="#mb03005b9a5" x="394.175256" y="201.331881" style="fill: #f58518; stroke: #f58518"/>
     <use xlink:href="#mb03005b9a5" x="409.204081" y="208.894327" style="fill: #f58518; stroke: #f58518"/>
    </g>
   </g>
   <g id="line2d_17">
    <path d="M 46.257969 190.165262 
L 426.487229 190.165262 
" clip-path="url(#pe5231c9f35)" style="fill: none; stroke-dasharray: 0.7,1.155; stroke-dashoffset: 0; stroke: #f58518; stroke-opacity: 0.55; stroke-width: 0.7"/>
   </g>
   <g id="line2d_18">
    <path d="M 63.541117 118.587531 
L 78.569941 111.501454 
L 93.598766 123.312856 
L 108.627591 134.618301 
L 123.656415 147.80176 
L 138.68524 169.203016 
L 153.714064 190.63501 
L 168.742889 208.491898 
L 183.771713 215.683597 
L 198.800538 221.431027 
L 213.829362 221.046943 
L 228.858187 222.925687 
L 243.887011 223.461088 
L 258.915836 223.637334 
L 273.94466 221.894576 
L 288.973485 222.900468 
L 304.002309 219.101239 
L 319.031134 210.095377 
L 334.059958 196.595462 
L 349.088783 198.870468 
L 364.117607 194.415866 
L 379.146432 206.646878 
L 394.175256 197.900991 
L 409.204081 209.252503 
" clip-path="url(#pe5231c9f35)" style="fill: none; stroke: #54a24b; stroke-width: 1.2; stroke-linecap: square"/>
    <defs>
     <path id="mbb570c5135" d="M 0 1.1 
C 0.291723 1.1 0.571538 0.984097 0.777817 0.777817 
C 0.984097 0.571538 1.1 0.291723 1.1 0 
C 1.1 -0.291723 0.984097 -0.571538 0.777817 -0.777817 
C 0.571538 -0.984097 0.291723 -1.1 0 -1.1 
C -0.291723 -1.1 -0.571538 -0.984097 -0.777817 -0.777817 
C -0.984097 -0.571538 -1.1 -0.291723 -1.1 0 
C -1.1 0.291723 -0.984097 0.571538 -0.777817 0.777817 
C -0.571538 0.984097 -0.291723 1.1 0 1.1 
z
" style="stroke: #54a24b"/>
    </defs>
    <g clip-path="url(#pe5231c9f35)">
     <use xlink:href="#mbb570c5135" x="63.541117" y="118.587531" style="fill: #54a24b; stroke: #54a24b"/>
     <use xlink:href="#mbb570c5135" x="78.569941" y="111.501454" style="fill: #54a24b; stroke: #54a24b"/>
     <use xlink:href="#mbb570c5135" x="93.598766" y="123.312856" style="fill: #54a24b; stroke: #54a24b"/>
     <use xlink:href="#mbb570c5135" x="108.627591" y="134.618301" style="fill: #54a24b; stroke: #54a24b"/>
     <use xlink:href="#mbb570c5135" x="123.656415" y="147.80176" style="fill: #54a24b; stroke: #54a24b"/>
     <use xlink:href="#mbb570c5135" x="138.68524" y="169.203016" style="fill: #54a24b; stroke: #54a24b"/>
     <use xlink:href="#mbb570c5135" x="153.714064" y="190.63501" style="fill: #54a24b; stroke: #54a24b"/>
     <use xlink:href="#mbb570c5135" x="168.742889" y="208.491898" style="fill: #54a24b; stroke: #54a24b"/>
     <use xlink:href="#mbb570c5135" x="183.771713" y="215.683597" style="fill: #54a24b; stroke: #54a24b"/>
     <use xlink:href="#mbb570c5135" x="198.800538" y="221.431027" style="fill: #54a24b; stroke: #54a24b"/>
     <use xlink:href="#mbb570c5135" x="213.829362" y="221.046943" style="fill: #54a24b; stroke: #54a24b"/>
     <use xlink:href="#mbb570c5135" x="228.858187" y="222.925687" style="fill: #54a24b; stroke: #54a24b"/>
     <use xlink:href="#mbb570c5135" x="243.887011" y="223.461088" style="fill: #54a24b; stroke: #54a24b"/>
     <use xlink:href="#mbb570c5135" x="258.915836" y="223.637334" style="fill: #54a24b; stroke: #54a24b"/>
     <use xlink:href="#mbb570c5135" x="273.94466" y="221.894576" style="fill: #54a24b; stroke: #54a24b"/>
     <use xlink:href="#mbb570c5135" x="288.973485" y="222.900468" style="fill: #54a24b; stroke: #54a24b"/>
     <use xlink:href="#mbb570c5135" x="304.002309" y="219.101239" style="fill: #54a24b; stroke: #54a24b"/>
     <use xlink:href="#mbb570c5135" x="319.031134" y="210.095377" style="fill: #54a24b; stroke: #54a24b"/>
     <use xlink:href="#mbb570c5135" x="334.059958" y="196.595462" style="fill: #54a24b; stroke: #54a24b"/>
     <use xlink:href="#mbb570c5135" x="349.088783" y="198.870468" style="fill: #54a24b; stroke: #54a24b"/>
     <use xlink:href="#mbb570c5135" x="364.117607" y="194.415866" style="fill: #54a24b; stroke: #54a24b"/>
     <use xlink:href="#mbb570c5135" x="379.146432" y="206.646878" style="fill: #54a24b; stroke: #54a24b"/>
     <use xlink:href="#mbb570c5135" x="394.175256" y="197.900991" style="fill: #54a24b; stroke: #54a24b"/>
     <use xlink:href="#mbb570c5135" x="409.204081" y="209.252503" style="fill: #54a24b; stroke: #54a24b"/>
    </g>
   </g>
   <g id="line2d_19">
    <path d="M 46.257969 192.083805 
L 426.487229 192.083805 
" clip-path="url(#pe5231c9f35)" style="fill: none; stroke-dasharray: 0.7,1.155; stroke-dashoffset: 0; stroke: #54a24b; stroke-opacity: 0.55; stroke-width: 0.7"/>
   </g>
   <g id="line2d_20">
    <path d="M 63.541117 110.196049 
L 78.569941 104.767435 
L 93.598766 129.443632 
L 108.627591 179.929171 
L 123.656415 208.938393 
L 138.68524 225.796163 
L 153.714064 231.490474 
L 168.742889 223.096466 
L 183.771713 221.493854 
L 198.800538 227.147415 
L 213.829362 228.822956 
L 228.858187 229.043059 
L 243.887011 228.248487 
L 258.915836 227.813313 
L 273.94466 226.212501 
L 288.973485 227.000596 
L 304.002309 225.162507 
L 319.031134 214.768504 
L 334.059958 194.882223 
L 349.088783 178.613918 
L 364.117607 166.644421 
L 379.146432 168.987195 
L 394.175256 154.155178 
L 409.204081 172.992431 
" clip-path="url(#pe5231c9f35)" style="fill: none; stroke: #b279a2; stroke-width: 1.2; stroke-linecap: square"/>
    <defs>
     <path id="m8ca3381e49" d="M 0 1.1 
C 0.291723 1.1 0.571538 0.984097 0.777817 0.777817 
C 0.984097 0.571538 1.1 0.291723 1.1 0 
C 1.1 -0.291723 0.984097 -0.571538 0.777817 -0.777817 
C 0.571538 -0.984097 0.291723 -1.1 0 -1.1 
C -0.291723 -1.1 -0.571538 -0.984097 -0.777817 -0.777817 
C -0.984097 -0.571538 -1.1 -0.291723 -1.1 0 
C -1.1 0.291723 -0.984097 0.571538 -0.777817 0.777817 
C -0.571538 0.984097 -0.291723 1.1 0 1.1 
z
" style="stroke: #b279a2"/>
    </defs>
    <g clip-path="url(#pe5231c9f35)">
     <use xlink:href="#m8ca3381e49" x="63.541117" y="110.196049" style="fill: #b279a2; stroke: #b279a2"/>
     <use xlink:href="#m8ca3381e49" x="78.569941" y="104.767435" style="fill: #b279a2; stroke: #b279a2"/>
     <use xlink:href="#m8ca3381e49" x="93.598766" y="129.443632" style="fill: #b279a2; stroke: #b279a2"/>
     <use xlink:href="#m8ca3381e49" x="108.627591" y="179.929171" style="fill: #b279a2; stroke: #b279a2"/>
     <use xlink:href="#m8ca3381e49" x="123.656415" y="208.938393" style="fill: #b279a2; stroke: #b279a2"/>
     <use xlink:href="#m8ca3381e49" x="138.68524" y="225.796163" style="fill: #b279a2; stroke: #b279a2"/>
     <use xlink:href="#m8ca3381e49" x="153.714064" y="231.490474" style="fill: #b279a2; stroke: #b279a2"/>
     <use xlink:href="#m8ca3381e49" x="168.742889" y="223.096466" style="fill: #b279a2; stroke: #b279a2"/>
     <use xlink:href="#m8ca3381e49" x="183.771713" y="221.493854" style="fill: #b279a2; stroke: #b279a2"/>
     <use xlink:href="#m8ca3381e49" x="198.800538" y="227.147415" style="fill: #b279a2; stroke: #b279a2"/>
     <use xlink:href="#m8ca3381e49" x="213.829362" y="228.822956" style="fill: #b279a2; stroke: #b279a2"/>
     <use xlink:href="#m8ca3381e49" x="228.858187" y="229.043059" style="fill: #b279a2; stroke: #b279a2"/>
     <use xlink:href="#m8ca3381e49" x="243.887011" y="228.248487" style="fill: #b279a2; stroke: #b279a2"/>
     <use xlink:href="#m8ca3381e49" x="258.915836" y="227.813313" style="fill: #b279a2; stroke: #b279a2"/>
     <use xlink:href="#m8ca3381e49" x="273.94466" y="226.212501" style="fill: #b279a2; stroke: #b279a2"/>
     <use xlink:href="#m8ca3381e49" x="288.973485" y="227.000596" style="fill: #b279a2; stroke: #b279a2"/>
     <use xlink:href="#m8ca3381e49" x="304.002309" y="225.162507" style="fill: #b279a2; stroke: #b279a2"/>
     <use xlink:href="#m8ca3381e49" x="319.031134" y="214.768504" style="fill: #b279a2; stroke: #b279a2"/>
     <use xlink:href="#m8ca3381e49" x="334.059958" y="194.882223" style="fill: #b279a2; stroke: #b279a2"/>
     <use xlink:href="#m8ca3381e49" x="349.088783" y="178.613918" style="fill: #b279a2; stroke: #b279a2"/>
     <use xlink:href="#m8ca3381e49" x="364.117607" y="166.644421" style="fill: #b279a2; stroke: #b279a2"/>
     <use xlink:href="#m8ca3381e49" x="379.146432" y="168.987195" style="fill: #b279a2; stroke: #b279a2"/>
     <use xlink:href="#m8ca3381e49" x="394.175256" y="154.155178" style="fill: #b279a2; stroke: #b279a2"/>
     <use xlink:href="#m8ca3381e49" x="409.204081" y="172.992431" style="fill: #b279a2; stroke: #b279a2"/>
    </g>
   </g>
   <g id="line2d_21">
    <path d="M 46.257969 196.068598 
L 426.487229 196.068598 
" clip-path="url(#pe5231c9f35)" style="fill: none; stroke-dasharray: 0.7,1.155; stroke-dashoffset: 0; stroke: #b279a2; stroke-opacity: 0.55; stroke-width: 0.7"/>
   </g>
   <g id="line2d_22">
    <path d="M 63.541117 177.666838 
L 78.569941 154.309156 
L 93.598766 137.0495 
L 108.627591 155.419344 
L 123.656415 121.392399 
L 138.68524 99.276439 
L 153.714064 158.017662 
L 168.742889 202.048891 
L 183.771713 213.444457 
L 198.800538 216.559858 
L 213.829362 220.832234 
L 228.858187 223.019352 
L 243.887011 224.109814 
L 258.915836 222.920718 
L 273.94466 220.787844 
L 288.973485 221.544972 
L 304.002309 221.836713 
L 319.031134 221.128104 
L 334.059958 219.876936 
L 349.088783 221.491473 
L 364.117607 220.809445 
L 379.146432 222.235378 
L 394.175256 221.319493 
L 409.204081 223.23249 
" clip-path="url(#pe5231c9f35)" style="fill: none; stroke: #72b7b2; stroke-width: 1.2; stroke-linecap: square"/>
    <defs>
     <path id="m57368f736a" d="M 0 1.1 
C 0.291723 1.1 0.571538 0.984097 0.777817 0.777817 
C 0.984097 0.571538 1.1 0.291723 1.1 0 
C 1.1 -0.291723 0.984097 -0.571538 0.777817 -0.777817 
C 0.571538 -0.984097 0.291723 -1.1 0 -1.1 
C -0.291723 -1.1 -0.571538 -0.984097 -0.777817 -0.777817 
C -0.984097 -0.571538 -1.1 -0.291723 -1.1 0 
C -1.1 0.291723 -0.984097 0.571538 -0.777817 0.777817 
C -0.571538 0.984097 -0.291723 1.1 0 1.1 
z
" style="stroke: #72b7b2"/>
    </defs>
    <g clip-path="url(#pe5231c9f35)">
     <use xlink:href="#m57368f736a" x="63.541117" y="177.666838" style="fill: #72b7b2; stroke: #72b7b2"/>
     <use xlink:href="#m57368f736a" x="78.569941" y="154.309156" style="fill: #72b7b2; stroke: #72b7b2"/>
     <use xlink:href="#m57368f736a" x="93.598766" y="137.0495" style="fill: #72b7b2; stroke: #72b7b2"/>
     <use xlink:href="#m57368f736a" x="108.627591" y="155.419344" style="fill: #72b7b2; stroke: #72b7b2"/>
     <use xlink:href="#m57368f736a" x="123.656415" y="121.392399" style="fill: #72b7b2; stroke: #72b7b2"/>
     <use xlink:href="#m57368f736a" x="138.68524" y="99.276439" style="fill: #72b7b2; stroke: #72b7b2"/>
     <use xlink:href="#m57368f736a" x="153.714064" y="158.017662" style="fill: #72b7b2; stroke: #72b7b2"/>
     <use xlink:href="#m57368f736a" x="168.742889" y="202.048891" style="fill: #72b7b2; stroke: #72b7b2"/>
     <use xlink:href="#m57368f736a" x="183.771713" y="213.444457" style="fill: #72b7b2; stroke: #72b7b2"/>
     <use xlink:href="#m57368f736a" x="198.800538" y="216.559858" style="fill: #72b7b2; stroke: #72b7b2"/>
     <use xlink:href="#m57368f736a" x="213.829362" y="220.832234" style="fill: #72b7b2; stroke: #72b7b2"/>
     <use xlink:href="#m57368f736a" x="228.858187" y="223.019352" style="fill: #72b7b2; stroke: #72b7b2"/>
     <use xlink:href="#m57368f736a" x="243.887011" y="224.109814" style="fill: #72b7b2; stroke: #72b7b2"/>
     <use xlink:href="#m57368f736a" x="258.915836" y="222.920718" style="fill: #72b7b2; stroke: #72b7b2"/>
     <use xlink:href="#m57368f736a" x="273.94466" y="220.787844" style="fill: #72b7b2; stroke: #72b7b2"/>
     <use xlink:href="#m57368f736a" x="288.973485" y="221.544972" style="fill: #72b7b2; stroke: #72b7b2"/>
     <use xlink:href="#m57368f736a" x="304.002309" y="221.836713" style="fill: #72b7b2; stroke: #72b7b2"/>
     <use xlink:href="#m57368f736a" x="319.031134" y="221.128104" style="fill: #72b7b2; stroke: #72b7b2"/>
     <use xlink:href="#m57368f736a" x="334.059958" y="219.876936" style="fill: #72b7b2; stroke: #72b7b2"/>
     <use xlink:href="#m57368f736a" x="349.088783" y="221.491473" style="fill: #72b7b2; stroke: #72b7b2"/>
     <use xlink:href="#m57368f736a" x="364.117607" y="220.809445" style="fill: #72b7b2; stroke: #72b7b2"/>
     <use xlink:href="#m57368f736a" x="379.146432" y="222.235378" style="fill: #72b7b2; stroke: #72b7b2"/>
     <use xlink:href="#m57368f736a" x="394.175256" y="221.319493" style="fill: #72b7b2; stroke: #72b7b2"/>
     <use xlink:href="#m57368f736a" x="409.204081" y="223.23249" style="fill: #72b7b2; stroke: #72b7b2"/>
    </g>
   </g>
   <g id="line2d_23">
    <path d="M 46.257969 197.51373 
L 426.487229 197.51373 
" clip-path="url(#pe5231c9f35)" style="fill: none; stroke-dasharray: 0.7,1.155; stroke-dashoffset: 0; stroke: #72b7b2; stroke-opacity: 0.55; stroke-width: 0.7"/>
   </g>
   <g id="line2d_24">
    <path d="M 46.257969 233.047068 
L 426.487229 233.047068 
" clip-path="url(#pe5231c9f35)" style="fill: none; stroke-dasharray: 2.96,1.28; stroke-dashoffset: 0; stroke: #555555; stroke-width: 0.8"/>
   </g>
   <g id="patch_3">
    <path d="M 46.257969 243.628739 
L 46.257969 7.2 
" style="fill: none; stroke: #000000; stroke-width: 0.8; stroke-linejoin: miter; stroke-linecap: square"/>
   </g>
   <g id="patch_4">
    <path d="M 46.257969 243.628739 
L 426.487229 243.628739 
" style="fill: none; stroke: #000000; stroke-width: 0.8; stroke-linejoin: miter; stroke-linecap: square"/>
   </g>
   <g id="legend_1">
    <g id="line2d_25">
     <path d="M 440.391814 104.970541 
L 447.391814 104.970541 
L 454.391814 104.970541 
" style="fill: none; stroke: #4c78a8; stroke-width: 1.2; stroke-linecap: square"/>
     <g>
      <use xlink:href="#m0b53941702" x="447.391814" y="104.970541" style="fill: #4c78a8; stroke: #4c78a8"/>
     </g>
    </g>
    <g id="text_16">
     <text style="font-size: 7px; font-family: 'Arial', 'Helvetica', 'DejaVu Sans', sans-serif; text-anchor: start" x="459.991814" y="107.420541" transform="rotate(-0 459.991814 107.420541)">nino + nino3 + nino4</text>
    </g>
    <g id="line2d_26">
     <path d="M 440.391814 114.87226 
L 447.391814 114.87226 
L 454.391814 114.87226 
" style="fill: none; stroke: #f58518; stroke-width: 1.2; stroke-linecap: square"/>
     <g>
      <use xlink:href="#mb03005b9a5" x="447.391814" y="114.87226" style="fill: #f58518; stroke: #f58518"/>
     </g>
    </g>
    <g id="text_17">
     <text style="font-size: 7px; font-family: 'Arial', 'Helvetica', 'DejaVu Sans', sans-serif; text-anchor: start" x="459.991814" y="117.32226" transform="rotate(-0 459.991814 117.32226)">nino + nino12 + nino4</text>
    </g>
    <g id="line2d_27">
     <path d="M 440.391814 124.773979 
L 447.391814 124.773979 
L 454.391814 124.773979 
" style="fill: none; stroke: #54a24b; stroke-width: 1.2; stroke-linecap: square"/>
     <g>
      <use xlink:href="#mbb570c5135" x="447.391814" y="124.773979" style="fill: #54a24b; stroke: #54a24b"/>
     </g>
    </g>
    <g id="text_18">
     <text style="font-size: 7px; font-family: 'Arial', 'Helvetica', 'DejaVu Sans', sans-serif; text-anchor: start" x="459.991814" y="127.223979" transform="rotate(-0 459.991814 127.223979)">nino + SPMM + nino12</text>
    </g>
    <g id="line2d_28">
     <path d="M 440.391814 134.675697 
L 447.391814 134.675697 
L 454.391814 134.675697 
" style="fill: none; stroke: #b279a2; stroke-width: 1.2; stroke-linecap: square"/>
     <g>
      <use xlink:href="#m8ca3381e49" x="447.391814" y="134.675697" style="fill: #b279a2; stroke: #b279a2"/>
     </g>
    </g>
    <g id="text_19">
     <text style="font-size: 7px; font-family: 'Arial', 'Helvetica', 'DejaVu Sans', sans-serif; text-anchor: start" x="459.991814" y="137.125697" transform="rotate(-0 459.991814 137.125697)">nino + nino12 + nino3</text>
    </g>
    <g id="line2d_29">
     <path d="M 440.391814 144.577416 
L 447.391814 144.577416 
L 454.391814 144.577416 
" style="fill: none; stroke: #72b7b2; stroke-width: 1.2; stroke-linecap: square"/>
     <g>
      <use xlink:href="#m57368f736a" x="447.391814" y="144.577416" style="fill: #72b7b2; stroke: #72b7b2"/>
     </g>
    </g>
    <g id="text_20">
     <text style="font-size: 7px; font-family: 'Arial', 'Helvetica', 'DejaVu Sans', sans-serif; text-anchor: start" x="459.991814" y="147.027416" transform="rotate(-0 459.991814 147.027416)">nino + NPMM + nino4</text>
    </g>
   </g>
  </g>
 </g>
 <defs>
  <clipPath id="pe5231c9f35">
   <rect x="46.257969" y="7.2" width="380.22926" height="236.428739"/>
  </clipPath>
 </defs>
</svg>
