<?xml version="1.0" encoding="utf-8" standalone="no"?>
<!DOCTYPE svg PUBLIC "-//W3C//DTD SVG 1.1//EN"
  "http://www.w3.org/Graphics/SVG/1.1/DTD/svg11.dtd">
<svg xmlns:xlink="http://www.w3.org/1999/xlink" width="500.09438pt" height="370.257876pt" viewBox="0 0 500.09438 370.257876" xmlns="http://www.w3.org/2000/svg" version="1.1">
 <metadata>
  <rdf:RDF xmlns:dc="http://purl.org/dc/elements/1.1/" xmlns:cc="http://creativecommons.org/ns#" xmlns:rdf="http://www.w3.org/1999/02/22-rdf-syntax-ns#">
   <cc:Work>
    <dc:type rdf:resource="http://purl.org/dc/dcmitype/StillImage"/>
    <dc:date>2026-07-26T12:13:04.095466</dc:date>
    <dc:format>image/svg+xml</dc:format>
    <dc:creator>
     <cc:Agent>
      <dc:title>Matplotlib v3.10.8, https://matplotlib.org/</dc:title>
     </cc:Agent>
    </dc:creator>
   </cc:Work>
  </rdf:RDF>
 </metadata>
 <defs>
  <style type="text/css">*{stroke-linejoin: round; stroke-linecap: butt}</style>
 </defs>
 <g id="figure_1">
  <g id="patch_1">
   <path d="M 0 370.257876
L 500.09438 370.257876
L 500.09438 0
L 0 0
z
" style="fill: #ffffff"/>
  </g>
  <g id="axes_1">
   <g id="line2d_1">
    <path d="M 64.916277 71.280893
L 105.946806 88.456426
" clip-path="url(#pb7e4c84b47)" style="fill: none; stroke-dasharray: 2.2,2.2; stroke-dashoffset: 0; stroke: #aeb6be; stroke-width: 1.1"/>
   </g>
   <g id="line2d_2">
    <path d="M 36.194907 71.280893
L 64.916277 71.280893
" clip-path="url(#pb7e4c84b47)" style="fill: none; stroke: #3e73a8; stroke-width: 3; stroke-linecap: round"/>
   </g>
   <g id="patch_2">
    <path d="M 105.946806 88.456426
L 133.300491 48.380182
L 148.345019 105.63196
z
" clip-path="url(#pb7e4c84b47)" style="fill: #d28a35; fill-opacity: 0.12; stroke: #d28a35; stroke-width: 1.8"/>
   </g>
   <g id="PathCollection_1">
    <defs>
     <path id="mb7855625ae" d="M 0 6.22495
C 1.650876 6.22495 3.234359 5.56905 4.401704 4.401704
C 5.56905 3.234359 6.22495 1.650876 6.22495 0
C 6.22495 -1.650876 5.56905 -3.234359 4.401704 -4.401704
C 3.234359 -5.56905 1.650876 -6.22495 0 -6.22495
C -1.650876 -6.22495 -3.234359 -5.56905 -4.401704 -4.401704
C -5.56905 -3.234359 -6.22495 -1.650876 -6.22495 0
C -6.22495 1.650876 -5.56905 3.234359 -4.401704 4.401704
C -3.234359 5.56905 -1.650876 6.22495 0 6.22495
z
" style="stroke: #3e73a8; stroke-width: 1.5"/>
    </defs>
    <g clip-path="url(#pb7e4c84b47)">
     <use xlink:href="#mb7855625ae" x="36.194907" y="71.280893" style="fill: #ffffff; stroke: #3e73a8; stroke-width: 1.5"/>
    </g>
   </g>
   <g id="PathCollection_2">
    <g clip-path="url(#pb7e4c84b47)">
     <use xlink:href="#mb7855625ae" x="64.916277" y="71.280893" style="fill: #ffffff; stroke: #3e73a8; stroke-width: 1.5"/>
    </g>
   </g>
   <g id="PathCollection_3">
    <defs>
     <path id="mfba9d1d91d" d="M 0 6.22495
C 1.650876 6.22495 3.234359 5.56905 4.401704 4.401704
C 5.56905 3.234359 6.22495 1.650876 6.22495 0
C 6.22495 -1.650876 5.56905 -3.234359 4.401704 -4.401704
C 3.234359 -5.56905 1.650876 -6.22495 0 -6.22495
C -1.650876 -6.22495 -3.234359 -5.56905 -4.401704 -4.401704
C -5.56905 -3.234359 -6.22495 -1.650876 -6.22495 0
C -6.22495 1.650876 -5.56905 3.234359 -4.401704 4.401704
C -3.234359 5.56905 -1.650876 6.22495 0 6.22495
z
" style="stroke: #d28a35; stroke-width: 1.5"/>
    </defs>
    <g clip-path="url(#pb7e4c84b47)">
     <use xlink:href="#mfba9d1d91d" x="105.946806" y="88.456426" style="fill: #ffffff; stroke: #d28a35; stroke-width: 1.5"/>
    </g>
   </g>
   <g id="PathCollection_4">
    <g clip-path="url(#pb7e4c84b47)">
     <use xlink:href="#mfba9d1d91d" x="133.300491" y="48.380182" style="fill: #ffffff; stroke: #d28a35; stroke-width: 1.5"/>
    </g>
   </g>
   <g id="PathCollection_5">
    <g clip-path="url(#pb7e4c84b47)">
     <use xlink:href="#mfba9d1d91d" x="148.345019" y="105.63196" style="fill: #ffffff; stroke: #d28a35; stroke-width: 1.5"/>
    </g>
   </g>
   <g id="text_1">
    <text style="font-weight: 700; font-size: 6px; font-family: 'Arial', 'Helvetica', 'DejaVu Sans', sans-serif; text-anchor: middle; fill: #3e73a8" x="50.418824" y="46.662628" transform="rotate(-0 50.418824 46.662628)">pairwise edge</text>
   </g>
   <g id="text_2">
    <text style="font-weight: 700; font-size: 6px; font-family: 'Arial', 'Helvetica', 'DejaVu Sans', sans-serif; text-anchor: middle; fill: #d28a35" x="131.385733" y="38.074862" transform="rotate(-0 131.385733 38.074862)">triadic hyperedge</text>
   </g>
   <g id="text_3">
    <!-- $\mathbf{Y}=\Delta_\tau\boldsymbol{\theta}_{1:5}$ -->
    <g style="fill: #4b5560" transform="translate(75.528352 130.250224)">
     <text>
      <tspan x="0" y="-0.390625" style="font-weight: 700; font-size: 6.1px; font-family: 'DejaVu Sans'; fill: #4b5560">Y</tspan>
      <tspan x="5.62854" y="-0.390625" style="font-size: 6.1px; font-family: 'DejaVu Sans'; fill: #4b5560">=</tspan>
      <tspan x="11.953918" y="-0.390625" style="font-size: 6.1px; font-family: 'DejaVu Sans'; fill: #4b5560">Δ</tspan>
      <tspan x="16.201343" y="0.59375" style="font-style: oblique; font-size: 4.27px; font-family: 'DejaVu Sans'; fill: #4b5560">τ</tspan>
      <tspan x="18.946698" y="-0.390625" style="font-style: oblique; font-weight: 700; font-size: 6.1px; font-family: 'DejaVu Sans'; fill: #4b5560">θ</tspan>
      <tspan x="23.212067" y="0.59375" style="font-size: 4.27px; font-family: 'DejaVu Sans'; fill: #4b5560">1</tspan>
      <tspan x="26.775214" y="0.59375" style="font-size: 4.27px; font-family: 'DejaVu Sans'; fill: #4b5560">:</tspan>
      <tspan x="29.055042" y="0.59375" style="font-size: 4.27px; font-family: 'DejaVu Sans'; fill: #4b5560">5</tspan>
     </text>
    </g>
   </g>
   <g id="text_4">
    <text style="font-weight: 700; font-size: 8px; font-family: 'Arial', 'Helvetica', 'DejaVu Sans', sans-serif; text-anchor: start" x="7.2" y="21.381642" transform="rotate(-0 7.2 21.381642)">a</text>
   </g>
   <g id="text_5">
    <!-- $\theta_1$ -->
    <g style="fill: #3e73a8" transform="translate(32.597907 73.071143)">
     <text>
      <tspan x="0" y="-0.625" style="font-style: oblique; font-size: 6.6px; font-family: 'DejaVu Sans'; fill: #3e73a8">θ</tspan>
      <tspan x="4.053284" y="0.523438" style="font-size: 4.62px; font-family: 'DejaVu Sans'; fill: #3e73a8">1</tspan>
     </text>
    </g>
   </g>
   <g id="text_6">
    <!-- $\theta_2$ -->
    <g style="fill: #3e73a8" transform="translate(61.319277 73.071143)">
     <text>
      <tspan x="0" y="-0.625" style="font-style: oblique; font-size: 6.6px; font-family: 'DejaVu Sans'; fill: #3e73a8">θ</tspan>
      <tspan x="4.053284" y="0.523438" style="font-size: 4.62px; font-family: 'DejaVu Sans'; fill: #3e73a8">2</tspan>
     </text>
    </g>
   </g>
   <g id="text_7">
    <!-- $\theta_3$ -->
    <g style="fill: #d28a35" transform="translate(102.349806 90.279676)">
     <text>
      <tspan x="0" y="-0.625" style="font-style: oblique; font-size: 6.6px; font-family: 'DejaVu Sans'; fill: #d28a35">θ</tspan>
      <tspan x="4.053284" y="0.523438" style="font-size: 4.62px; font-family: 'DejaVu Sans'; fill: #d28a35">3</tspan>
     </text>
    </g>
   </g>
   <g id="text_8">
    <!-- $\theta_4$ -->
    <g style="fill: #d28a35" transform="translate(129.703491 50.170432)">
     <text>
      <tspan x="0" y="-0.625" style="font-style: oblique; font-size: 6.6px; font-family: 'DejaVu Sans'; fill: #d28a35">θ</tspan>
      <tspan x="4.053284" y="0.523438" style="font-size: 4.62px; font-family: 'DejaVu Sans'; fill: #d28a35">4</tspan>
     </text>
    </g>
   </g>
   <g id="text_9">
    <!-- $\theta_5$ -->
    <g style="fill: #d28a35" transform="translate(144.748019 107.45521)">
     <text>
      <tspan x="0" y="-0.625" style="font-style: oblique; font-size: 6.6px; font-family: 'DejaVu Sans'; fill: #d28a35">θ</tspan>
      <tspan x="4.053284" y="0.523438" style="font-size: 4.62px; font-family: 'DejaVu Sans'; fill: #d28a35">5</tspan>
     </text>
    </g>
   </g>
  </g>
  <g id="axes_2">
   <g id="patch_3">
    <path d="M 21.15038 339.087095
L 160.654177 339.087095
L 160.654177 168.946555
L 21.15038 168.946555
z
" style="fill: #ffffff"/>
   </g>
   <g id="line2d_3">
    <path d="M 21.15038 185.261401
L 160.654177 185.261401
" clip-path="url(#p82582e15d9)" style="fill: none; stroke: #e9edf0; stroke-width: 0.55; stroke-linecap: square"/>
   </g>
   <g id="line2d_4">
    <path d="M 21.15038 219.639113
L 160.654177 219.639113
" clip-path="url(#p82582e15d9)" style="fill: none; stroke: #e9edf0; stroke-width: 0.55; stroke-linecap: square"/>
   </g>
   <g id="line2d_5">
    <path d="M 21.15038 254.016825
L 160.654177 254.016825
" clip-path="url(#p82582e15d9)" style="fill: none; stroke: #e9edf0; stroke-width: 0.55; stroke-linecap: square"/>
   </g>
   <g id="line2d_6">
    <path d="M 21.15038 288.394537
L 160.654177 288.394537
" clip-path="url(#p82582e15d9)" style="fill: none; stroke: #e9edf0; stroke-width: 0.55; stroke-linecap: square"/>
   </g>
   <g id="line2d_7">
    <path d="M 21.15038 322.772249
L 160.654177 322.772249
" clip-path="url(#p82582e15d9)" style="fill: none; stroke: #e9edf0; stroke-width: 0.55; stroke-linecap: square"/>
   </g>
   <g id="matplotlib.axis_1">
    <g id="xtick_1">
     <g id="line2d_8">
      <defs>
       <path id="ma6e0caf999" d="M 0 0
L 0 3.5
" style="stroke: #000000; stroke-width: 0.8"/>
      </defs>
      <g>
       <use xlink:href="#ma6e0caf999" x="21.15038" y="339.087095" style="stroke: #000000; stroke-width: 0.8"/>
      </g>
     </g>
     <g id="text_10">
      <text style="font-size: 7px; font-family: 'Arial', 'Helvetica', 'DejaVu Sans', sans-serif; text-anchor: middle" x="21.15038" y="351.097564" transform="rotate(-0 21.15038 351.097564)">0</text>
     </g>
    </g>
    <g id="xtick_2">
     <g id="line2d_9">
      <g>
       <use xlink:href="#ma6e0caf999" x="44.401013" y="339.087095" style="stroke: #000000; stroke-width: 0.8"/>
      </g>
     </g>
     <g id="text_11">
      <text style="font-size: 7px; font-family: 'Arial', 'Helvetica', 'DejaVu Sans', sans-serif; text-anchor: middle" x="44.401013" y="351.097564" transform="rotate(-0 44.401013 351.097564)">1</text>
     </g>
    </g>
    <g id="xtick_3">
     <g id="line2d_10">
      <g>
       <use xlink:href="#ma6e0caf999" x="67.651646" y="339.087095" style="stroke: #000000; stroke-width: 0.8"/>
      </g>
     </g>
     <g id="text_12">
      <text style="font-size: 7px; font-family: 'Arial', 'Helvetica', 'DejaVu Sans', sans-serif; text-anchor: middle" x="67.651646" y="351.097564" transform="rotate(-0 67.651646 351.097564)">2</text>
     </g>
    </g>
    <g id="xtick_4">
     <g id="line2d_11">
      <g>
       <use xlink:href="#ma6e0caf999" x="90.902278" y="339.087095" style="stroke: #000000; stroke-width: 0.8"/>
      </g>
     </g>
     <g id="text_13">
      <text style="font-size: 7px; font-family: 'Arial', 'Helvetica', 'DejaVu Sans', sans-serif; text-anchor: middle" x="90.902278" y="351.097564" transform="rotate(-0 90.902278 351.097564)">3</text>
     </g>
    </g>
    <g id="xtick_5">
     <g id="line2d_12">
      <g>
       <use xlink:href="#ma6e0caf999" x="114.152911" y="339.087095" style="stroke: #000000; stroke-width: 0.8"/>
      </g>
     </g>
     <g id="text_14">
      <text style="font-size: 7px; font-family: 'Arial', 'Helvetica', 'DejaVu Sans', sans-serif; text-anchor: middle" x="114.152911" y="351.097564" transform="rotate(-0 114.152911 351.097564)">4</text>
     </g>
    </g>
    <g id="xtick_6">
     <g id="line2d_13">
      <g>
       <use xlink:href="#ma6e0caf999" x="137.403544" y="339.087095" style="stroke: #000000; stroke-width: 0.8"/>
      </g>
     </g>
     <g id="text_15">
      <text style="font-size: 7px; font-family: 'Arial', 'Helvetica', 'DejaVu Sans', sans-serif; text-anchor: middle" x="137.403544" y="351.097564" transform="rotate(-0 137.403544 351.097564)">5</text>
     </g>
    </g>
    <g id="xtick_7">
     <g id="line2d_14">
      <g>
       <use xlink:href="#ma6e0caf999" x="160.654177" y="339.087095" style="stroke: #000000; stroke-width: 0.8"/>
      </g>
     </g>
     <g id="text_16">
      <text style="font-size: 7px; font-family: 'Arial', 'Helvetica', 'DejaVu Sans', sans-serif; text-anchor: middle" x="160.654177" y="351.097564" transform="rotate(-0 160.654177 351.097564)">6</text>
     </g>
    </g>
    <g id="text_17">
     <text style="font-size: 7px; font-family: 'Arial', 'Helvetica', 'DejaVu Sans', sans-serif; text-anchor: middle" x="90.902278" y="361.584595" transform="rotate(-0 90.902278 361.584595)">Time (s)</text>
    </g>
   </g>
   <g id="matplotlib.axis_2">
    <g id="ytick_1">
     <g id="line2d_15"/>
     <g id="text_18">
      <!-- $\theta_1$ -->
      <g style="fill: #3e73a8" transform="translate(9.52038 187.860698)">
       <text>
        <tspan x="0" y="-0.625" style="font-style: oblique; font-size: 7px; font-family: 'DejaVu Sans'; fill: #3e73a8">θ</tspan>
        <tspan x="4.282715" y="0.523438" style="font-size: 4.9px; font-family: 'DejaVu Sans'; fill: #3e73a8">1</tspan>
       </text>
      </g>
     </g>
    </g>
    <g id="ytick_2">
     <g id="line2d_16"/>
     <g id="text_19">
      <!-- $\theta_2$ -->
      <g style="fill: #3e73a8" transform="translate(9.52038 222.23841)">
       <text>
        <tspan x="0" y="-0.625" style="font-style: oblique; font-size: 7px; font-family: 'DejaVu Sans'; fill: #3e73a8">θ</tspan>
        <tspan x="4.282715" y="0.523438" style="font-size: 4.9px; font-family: 'DejaVu Sans'; fill: #3e73a8">2</tspan>
       </text>
      </g>
     </g>
    </g>
    <g id="ytick_3">
     <g id="line2d_17"/>
     <g id="text_20">
      <!-- $\theta_3$ -->
      <g style="fill: #d28a35" transform="translate(9.52038 256.651122)">
       <text>
        <tspan x="0" y="-0.625" style="font-style: oblique; font-size: 7px; font-family: 'DejaVu Sans'; fill: #d28a35">θ</tspan>
        <tspan x="4.282715" y="0.523438" style="font-size: 4.9px; font-family: 'DejaVu Sans'; fill: #d28a35">3</tspan>
       </text>
      </g>
     </g>
    </g>
    <g id="ytick_4">
     <g id="line2d_18"/>
     <g id="text_21">
      <!-- $\theta_4$ -->
      <g style="fill: #d28a35" transform="translate(9.52038 290.993834)">
       <text>
        <tspan x="0" y="-0.625" style="font-style: oblique; font-size: 7px; font-family: 'DejaVu Sans'; fill: #d28a35">θ</tspan>
        <tspan x="4.282715" y="0.523438" style="font-size: 4.9px; font-family: 'DejaVu Sans'; fill: #d28a35">4</tspan>
       </text>
      </g>
     </g>
    </g>
    <g id="ytick_5">
     <g id="line2d_19"/>
     <g id="text_22">
      <!-- $\theta_5$ -->
      <g style="fill: #d28a35" transform="translate(9.52038 325.406546)">
       <text>
        <tspan x="0" y="-0.625" style="font-style: oblique; font-size: 7px; font-family: 'DejaVu Sans'; fill: #d28a35">θ</tspan>
        <tspan x="4.282715" y="0.523438" style="font-size: 4.9px; font-family: 'DejaVu Sans'; fill: #d28a35">5</tspan>
       </text>
      </g>
     </g>
    </g>
   </g>
   <g id="line2d_20">
    <path d="M 21.15038 197.697584
L 22.312911 197.619877
L 23.01043 197.563906
L 24.637975 197.419505
L 26.730532 197.008384
L 28.590582 196.748931
L 30.218127 196.752388
L 30.683139 196.764493
L 31.380658 196.730803
L 32.310684 196.721276
L 33.938228 196.868868
L 34.868253 196.791592
L 35.333266 196.703053
L 36.263291 196.62876
L 37.193316 196.451044
L 37.890835 196.638368
L 39.983392 196.700191
L 40.448405 196.728441
L 41.37843 196.652152
L 41.843443 196.759041
L 44.168506 196.850676
L 45.331038 196.87734
L 46.028557 196.887098
L 46.49357 196.831105
L 47.656101 196.853981
L 48.121114 196.861185
L 48.586127 196.882142
L 49.051139 196.934371
L 50.213671 196.939533
L 51.376203 197.064107
L 51.841215 197.130762
L 52.306228 197.107624
L 53.236253 197.300347
L 56.258835 197.402107
L 57.653873 197.422009
L 58.583899 197.470543
L 60.676456 197.554417
L 61.606481 197.512419
L 63.699038 197.662265
L 73.464304 197.740199
L 84.857114 197.397798
L 87.182177 197.235103
L 88.809722 197.270747
L 90.669772 197.175855
L 92.297316 197.019255
L 92.762329 197.057968
L 95.319899 196.897889
L 96.714937 196.755552
L 97.644962 196.788652
L 98.109975 196.748676
L 98.807494 196.669398
L 100.202532 196.371032
L 101.132557 196.390737
L 101.830076 196.239768
L 102.295089 196.224052
L 102.760101 196.185963
L 103.225114 196.261676
L 104.155139 196.226976
L 108.340253 195.732726
L 108.805266 195.576649
L 109.735291 195.641491
L 110.200304 195.47211
L 110.897823 195.561806
L 111.595342 195.624331
L 112.060354 195.454776
L 114.617924 195.25569
L 114.85043 195.121835
L 115.315443 195.206595
L 116.245468 194.784694
L 116.477975 194.818299
L 117.408 194.592436
L 119.500557 194.5739
L 119.733063 194.46384
L 120.198076 194.568434
L 121.128101 194.538263
L 121.360608 194.532706
L 121.593114 194.405559
L 122.523139 194.3442
L 123.453165 194.221056
L 125.080709 194.076966
L 125.545722 194.160959
L 126.708253 193.839494
L 126.940759 193.673866
L 127.638278 193.806817
L 128.103291 193.563741
L 128.335797 193.616606
L 129.033316 193.445678
L 129.265823 193.513031
L 130.660861 193.197375
L 131.35838 193.283319
L 131.590886 193.209453
L 131.823392 193.280316
L 132.753418 192.837369
L 133.21843 192.91468
L 133.450937 192.665993
L 133.683443 192.654962
L 133.915949 192.489883
L 134.380962 192.530807
L 134.845975 192.616996
L 135.310987 192.51469
L 135.776 192.436292
L 137.403544 192.181967
L 137.636051 192.12366
L 138.101063 192.1834
L 138.33357 192.055039
L 138.798582 192.01371
L 139.263595 191.846805
L 139.496101 191.952851
L 139.728608 191.912358
L 139.961114 191.716985
L 140.426127 191.756533
L 142.053671 191.453399
L 142.286177 191.468916
L 142.983696 191.179013
L 144.146228 191.18412
L 145.308759 190.920166
L 145.773772 190.706469
L 146.006278 190.761912
L 146.238785 190.591447
L 146.703797 190.691944
L 146.936304 190.474796
L 147.16881 190.491646
L 147.866329 190.085447
L 148.098835 190.319108
L 149.261367 190.377551
L 152.748962 189.856846
L 152.981468 189.613801
L 154.376506 189.397906
L 154.841519 189.183315
L 155.074025 189.284838
L 155.539038 189.18363
L 156.236557 188.922619
L 156.469063 188.952158
L 156.70157 188.798782
L 157.166582 188.788922
L 158.096608 188.354686
L 158.794127 188.282087
L 159.491646 188.186655
L 159.724152 188.07285
L 160.189165 188.240752
L 160.421671 188.131547
L 160.654177 188.172076
L 160.654177 188.172076
" clip-path="url(#p82582e15d9)" style="fill: none; stroke: #3e73a8; stroke-width: 1.15; stroke-linecap: square"/>
   </g>
   <g id="line2d_21">
    <path d="M 21.15038 220.889773
L 21.382886 221.018461
L 22.080405 221.887485
L 22.545418 222.257612
L 22.777924 222.512498
L 23.01043 222.449049
L 23.707949 223.164916
L 23.940456 223.476873
L 24.172962 223.602468
L 24.637975 224.151029
L 25.102987 224.563819
L 25.568 225.160781
L 25.800506 225.182399
L 26.730532 225.687812
L 27.195544 225.849069
L 27.428051 226.077597
L 27.660557 226.116914
L 28.823089 226.846366
L 29.98562 227.535939
L 30.450633 227.554462
L 30.915646 227.46104
L 31.845671 228.010471
L 33.240709 228.640469
L 33.473215 228.571139
L 33.705722 228.741711
L 34.403241 228.916918
L 34.868253 229.090829
L 35.333266 229.286592
L 36.96081 229.269295
L 37.425823 229.273925
L 37.890835 229.375399
L 38.123342 229.408071
L 38.355848 229.310913
L 42.308456 229.870605
L 43.005975 229.775741
L 43.936 229.963088
L 44.401013 229.751064
L 45.098532 229.888653
L 45.563544 230.00908
L 45.796051 230.10425
L 46.261063 230.021588
L 46.726076 230.081717
L 46.958582 230.0444
L 47.423595 230.163029
L 47.888608 230.225549
L 49.748658 230.254595
L 49.981165 230.327156
L 50.446177 230.335003
L 55.561316 230.97478
L 56.026329 231.071891
L 56.723848 231.085124
L 57.188861 231.0643
L 59.978937 231.489359
L 60.676456 231.471541
L 61.373975 231.363006
L 62.536506 231.445982
L 63.234025 231.582646
L 64.164051 231.652252
L 65.559089 231.757357
L 66.489114 231.886296
L 67.419139 231.915996
L 69.27919 232.009566
L 70.906734 232.101189
L 79.509468 232.165736
L 96.48243 231.783934
L 96.947443 231.703826
L 98.574987 231.710776
L 99.737519 231.628547
L 100.435038 231.575532
L 101.132557 231.565119
L 101.830076 231.474774
L 102.527595 231.524722
L 105.085165 231.498971
L 105.782684 231.54582
L 107.410228 231.380915
L 107.875241 231.20878
L 108.572759 231.196715
L 109.270278 231.024456
L 109.735291 231.101063
L 110.43281 231.161722
L 111.827848 231.006711
L 113.455392 230.983446
L 114.152911 230.864511
L 115.082937 230.940907
L 117.408 230.611815
L 117.873013 230.699238
L 118.803038 230.659056
L 119.268051 230.532112
L 119.733063 230.606985
L 120.198076 230.545735
L 121.128101 230.552524
L 122.523139 230.104722
L 123.220658 229.995401
L 124.38319 230.018553
L 125.313215 229.816498
L 125.778228 229.774943
L 126.243241 229.790933
L 127.173266 229.891012
L 127.870785 229.755105
L 128.568304 229.766831
L 129.265823 229.728855
L 129.498329 229.63533
L 129.730835 229.675377
L 131.590886 229.164053
L 132.985924 228.928596
L 133.683443 228.945211
L 134.148456 228.646624
L 134.380962 228.760173
L 134.845975 228.682962
L 136.008506 228.591101
L 138.33357 228.16132
L 138.566076 228.039395
L 139.031089 228.07812
L 140.891139 227.807208
L 141.123646 227.863427
L 141.356152 227.644275
L 141.588658 227.756067
L 143.448709 227.302773
L 143.681215 227.342212
L 143.913722 227.158588
L 146.006278 226.900226
L 146.471291 226.944281
L 146.703797 227.012834
L 146.936304 226.913346
L 147.16881 227.039922
L 147.633823 226.773438
L 149.028861 226.328598
L 149.261367 226.089435
L 149.493873 226.023985
L 149.72638 226.145152
L 150.191392 226.004394
L 150.888911 225.883747
L 151.121418 225.891103
L 151.58643 225.754773
L 152.051443 225.956741
L 153.446481 225.441871
L 153.911494 225.534257
L 154.144 225.319614
L 155.539038 225.274692
L 155.771544 225.182954
L 156.004051 225.245278
L 156.934076 224.973602
L 157.166582 225.058149
L 157.399089 224.914436
L 158.096608 224.883834
L 158.56162 224.682147
L 159.026633 224.801388
L 159.259139 224.669873
L 159.491646 224.68933
L 159.956658 224.541107
L 160.654177 224.551877
L 160.654177 224.551877
" clip-path="url(#p82582e15d9)" style="fill: none; stroke: #3e73a8; stroke-width: 1.15; stroke-linecap: square"/>
   </g>
   <g id="line2d_22">
    <path d="M 21.15038 241.793478
L 21.847899 241.694247
L 26.265519 241.533963
L 27.195544 241.681442
L 29.753114 242.713749
L 30.450633 243.140862
L 30.915646 243.236482
L 31.380658 243.587289
L 31.845671 243.800251
L 32.310684 243.927926
L 33.008203 244.087518
L 33.240709 244.307135
L 34.868253 244.703771
L 35.333266 244.613599
L 35.798278 244.661769
L 36.495797 244.947319
L 37.658329 245.055465
L 38.123342 245.152595
L 38.355848 245.066239
L 38.820861 245.152484
L 39.51838 245.127356
L 39.750886 245.136587
L 40.215899 245.434343
L 40.913418 245.46156
L 41.37843 245.406031
L 41.843443 245.408737
L 42.075949 245.607237
L 43.703494 245.712964
L 46.028557 245.899093
L 46.49357 245.870833
L 47.191089 245.827018
L 47.656101 245.671348
L 48.35362 245.905109
L 48.818633 245.755545
L 49.283646 245.904869
L 49.981165 245.729845
L 51.143696 245.807627
L 51.841215 246.114683
L 53.236253 245.978162
L 53.701266 246.12685
L 54.631291 246.265092
L 55.561316 245.901023
L 55.793823 246.010805
L 57.88638 245.744744
L 58.816405 246.058909
L 59.048911 246.082943
L 59.513924 245.99198
L 59.74643 245.92808
L 60.443949 246.219019
L 60.676456 246.256434
L 61.373975 245.97398
L 61.838987 245.807813
L 62.071494 245.926431
L 62.304 245.848071
L 62.536506 246.01404
L 63.234025 246.142502
L 63.699038 246.235307
L 64.629063 246.207567
L 64.86157 246.361078
L 66.256608 246.163995
L 66.489114 246.100647
L 67.186633 246.213908
L 67.419139 246.146047
L 67.651646 246.232799
L 67.884152 246.094793
L 68.581671 246.210516
L 69.511696 246.011924
L 69.744203 246.085579
L 70.441722 245.930021
L 70.906734 246.178154
L 71.139241 246.287674
L 74.161823 245.779398
L 75.091848 246.137956
L 75.789367 245.99798
L 76.021873 246.108842
L 76.25438 245.953215
L 77.184405 246.238285
L 78.346937 246.062274
L 78.811949 246.359382
L 79.276962 246.263848
L 79.509468 246.33899
L 79.974481 246.145813
L 83.22957 246.005682
L 83.694582 245.944625
L 83.927089 245.861302
L 84.392101 245.964122
L 84.857114 245.901658
L 85.322127 245.94767
L 86.252152 246.048161
L 86.717165 246.287507
L 87.182177 246.272428
L 87.414684 246.336075
L 87.64719 246.208299
L 88.112203 246.30529
L 88.809722 245.975241
L 89.739747 246.123719
L 89.972253 246.037591
L 90.204759 246.132671
L 90.902278 246.057452
L 91.134785 246.072924
L 91.832304 245.838292
L 92.297316 245.846769
L 92.994835 246.153089
L 93.692354 246.193559
L 94.157367 245.965297
L 95.087392 245.9417
L 95.552405 245.922684
L 96.017418 245.954346
L 96.249924 245.822018
L 96.48243 245.935892
L 97.179949 245.774258
L 98.574987 245.95746
L 99.04 245.711596
L 99.737519 245.761052
L 100.435038 245.510641
L 100.667544 245.608616
L 101.132557 245.621621
L 101.365063 245.705243
L 102.295089 245.548039
L 102.760101 245.741193
L 102.992608 245.643709
L 103.225114 245.813808
L 103.45762 245.69561
L 104.387646 245.731853
L 105.317671 245.633371
L 106.247696 245.6949
L 106.945215 245.758258
L 107.177722 245.878449
L 107.642734 245.873075
L 108.805266 246.428718
L 109.037772 246.496713
L 109.735291 246.224295
L 110.43281 245.993777
L 110.665316 246.102491
L 111.362835 246.1125
L 111.595342 246.246297
L 112.292861 246.053672
L 113.687899 246.266946
L 113.920405 246.372891
L 115.780456 246.175831
L 116.477975 246.480584
L 116.942987 246.630093
L 117.640506 246.367858
L 117.873013 246.372227
L 118.105519 246.264521
L 118.338025 246.37019
L 118.803038 246.261175
L 119.035544 246.397031
L 119.733063 246.298089
L 119.96557 246.344088
L 120.198076 246.515558
L 120.430582 246.482939
L 120.663089 246.628318
L 121.593114 246.675704
L 121.82562 246.755804
L 122.290633 246.562135
L 122.755646 246.652014
L 122.988152 246.438876
L 123.220658 246.480279
L 123.685671 246.326158
L 124.150684 246.40661
L 125.313215 246.557076
L 126.243241 246.269971
L 126.475747 246.481809
L 126.708253 246.375695
L 126.940759 246.514987
L 127.173266 246.43696
L 127.638278 246.520986
L 127.870785 246.438981
L 128.568304 246.496356
L 128.80081 246.412592
L 129.963342 246.521379
L 130.428354 246.500246
L 131.35838 246.880656
L 131.823392 246.808989
L 132.985924 246.633122
L 133.450937 246.758417
L 134.148456 246.530242
L 134.380962 246.52209
L 134.613468 246.381278
L 135.310987 246.443517
L 135.543494 246.553688
L 136.241013 246.558003
L 137.171038 246.784015
L 137.868557 246.569231
L 138.798582 246.708553
L 139.263595 246.618007
L 139.961114 246.616161
L 140.19362 246.534642
L 140.426127 246.578157
L 140.891139 246.357165
L 141.123646 246.477335
L 141.588658 246.343285
L 142.053671 246.404824
L 143.448709 246.382615
L 143.913722 246.233308
L 144.378734 246.264326
L 145.076253 246.475084
L 145.541266 246.159163
L 146.006278 246.213163
L 147.633823 246.340901
L 147.866329 246.35379
L 148.098835 246.509199
L 148.331342 246.514266
L 148.796354 246.728265
L 149.493873 246.700003
L 149.958886 246.637711
L 150.191392 246.707155
L 150.888911 246.485158
L 151.353924 246.540527
L 151.818937 246.44104
L 152.283949 246.568498
L 152.516456 246.53222
L 152.981468 246.226027
L 154.376506 246.404381
L 154.609013 246.488979
L 155.074025 246.423792
L 155.771544 246.465551
L 156.236557 246.186524
L 157.631595 246.2082
L 158.096608 246.16693
L 158.794127 246.433523
L 159.259139 246.636493
L 160.421671 246.348281
L 160.654177 246.337969
L 160.654177 246.337969
" clip-path="url(#p82582e15d9)" style="fill: none; stroke: #d28a35; stroke-width: 1.15; stroke-linecap: square"/>
   </g>
   <g id="line2d_23">
    <path d="M 21.15038 297.80618
L 22.777924 298.517816
L 23.475443 298.986069
L 25.102987 299.607282
L 26.033013 300.054311
L 26.498025 300.246477
L 27.195544 300.516037
L 28.823089 300.872996
L 30.218127 300.918656
L 33.705722 300.739734
L 34.868253 300.580629
L 39.285873 300.320058
L 40.680911 300.351126
L 41.610937 300.324611
L 43.005975 300.351001
L 43.936 300.427078
L 45.331038 300.450979
L 48.35362 300.310827
L 57.421367 300.288849
L 57.88638 300.304966
L 58.351392 300.326054
L 64.86157 300.233743
L 67.419139 300.206728
L 68.116658 300.163657
L 72.301772 300.155992
L 72.999291 300.127826
L 73.929316 300.083782
L 74.859342 300.106334
L 75.556861 300.200249
L 76.021873 300.142052
L 77.416911 300.143633
L 79.044456 300.155249
L 79.509468 300.108276
L 80.904506 300.05328
L 81.369519 300.000196
L 81.834532 299.997556
L 82.299544 300.037751
L 84.159595 300.268598
L 86.252152 300.373207
L 87.64719 300.228976
L 91.599797 300.155609
L 91.832304 300.143382
L 92.297316 300.278116
L 93.692354 300.375954
L 95.319899 300.321086
L 95.784911 300.36854
L 96.947443 300.237495
L 99.737519 300.214722
L 103.225114 300.247579
L 103.45762 300.13585
L 104.155139 300.189229
L 104.852658 300.172035
L 105.550177 300.194233
L 106.01519 300.127853
L 106.712709 300.211838
L 107.875241 300.18275
L 109.270278 300.250871
L 109.967797 300.43559
L 111.362835 300.308652
L 112.525367 300.406664
L 112.99038 300.395262
L 113.687899 300.393898
L 114.152911 300.374938
L 115.547949 300.362383
L 116.942987 300.350023
L 117.408 300.318512
L 119.035544 300.410785
L 120.198076 300.349362
L 120.895595 300.452887
L 122.058127 300.413768
L 123.453165 300.407293
L 124.150684 300.391214
L 125.778228 300.419323
L 126.475747 300.402796
L 129.033316 300.548229
L 129.730835 300.477567
L 130.428354 300.54485
L 131.590886 300.59859
L 132.055899 300.591213
L 132.985924 300.543466
L 134.380962 300.454929
L 135.078481 300.476192
L 135.543494 300.473043
L 136.706025 300.545749
L 139.031089 300.479162
L 139.961114 300.59864
L 141.123646 300.624206
L 142.518684 300.621785
L 152.981468 300.413131
L 153.911494 300.393914
L 154.609013 300.367937
L 155.539038 300.280604
L 156.004051 300.347512
L 157.631595 300.365642
L 158.56162 300.404485
L 159.259139 300.420181
L 160.189165 300.453584
L 160.654177 300.408961
L 160.654177 300.408961
" clip-path="url(#p82582e15d9)" style="fill: none; stroke: #d28a35; stroke-width: 1.15; stroke-linecap: square"/>
   </g>
   <g id="line2d_24">
    <path d="M 21.15038 319.070128
L 22.777924 318.924692
L 23.01043 318.983467
L 23.242937 318.768471
L 23.940456 318.801207
L 24.172962 319.018826
L 24.405468 318.981915
L 24.870481 319.257268
L 25.102987 319.047602
L 26.033013 319.330769
L 26.265519 319.569023
L 27.660557 319.849038
L 28.358076 319.866324
L 29.055595 319.540422
L 29.520608 319.323426
L 30.218127 319.474603
L 30.683139 319.412872
L 32.54319 318.919883
L 34.403241 319.465158
L 34.635747 319.33482
L 35.565772 319.457753
L 35.798278 319.649663
L 36.263291 319.660151
L 36.495797 319.799707
L 37.193316 319.651868
L 37.425823 319.677571
L 38.123342 319.511157
L 38.355848 319.449664
L 38.588354 319.659645
L 40.215899 319.590359
L 40.680911 319.634456
L 41.37843 319.708241
L 41.610937 319.82426
L 42.075949 319.824785
L 42.308456 319.896986
L 42.773468 319.820373
L 43.005975 319.987492
L 43.703494 319.690423
L 44.168506 319.872447
L 44.401013 319.978483
L 46.726076 319.547442
L 46.958582 319.618247
L 47.191089 319.540858
L 47.888608 319.620663
L 48.121114 319.494244
L 49.051139 319.510789
L 49.283646 319.408482
L 49.748658 319.515874
L 50.213671 319.409185
L 50.678684 319.227187
L 51.608709 319.317305
L 51.841215 319.272489
L 52.073722 319.106187
L 53.003747 319.352895
L 53.236253 319.156629
L 53.701266 319.024355
L 53.933772 318.949371
L 54.398785 319.120023
L 54.631291 319.029989
L 54.863797 319.211599
L 55.096304 319.038057
L 55.561316 319.116765
L 57.188861 319.268689
L 57.421367 319.07467
L 57.88638 319.138872
L 58.118886 318.947285
L 58.351392 319.04256
L 59.281418 318.511777
L 59.74643 318.695522
L 62.071494 319.145505
L 62.304 319.269471
L 62.769013 319.087171
L 63.699038 319.119196
L 64.164051 319.404909
L 64.629063 319.135776
L 64.86157 319.36376
L 65.094076 319.3425
L 65.326582 319.205835
L 66.256608 319.230235
L 66.489114 319.152968
L 66.954127 319.208742
L 67.186633 319.046663
L 67.884152 319.062728
L 68.116658 319.127178
L 68.814177 318.799902
L 69.744203 319.259542
L 70.209215 319.126574
L 70.674228 319.354903
L 70.906734 319.307877
L 71.371747 319.360073
L 71.836759 319.361938
L 72.069266 319.091738
L 72.301772 319.092037
L 72.534278 319.243033
L 72.999291 319.102939
L 73.69681 319.174381
L 73.929316 318.969679
L 74.161823 319.098378
L 74.859342 319.124116
L 75.789367 319.642777
L 76.25438 319.394009
L 77.184405 319.523002
L 78.11443 319.808571
L 78.579443 319.563689
L 79.044456 319.673669
L 79.741975 319.43614
L 80.206987 319.582883
L 80.439494 319.776605
L 81.602025 319.601235
L 82.299544 319.620639
L 82.764557 319.692658
L 83.462076 319.456502
L 83.694582 319.368354
L 83.927089 319.403622
L 84.392101 319.629504
L 84.624608 319.756246
L 85.322127 319.66799
L 85.787139 319.468152
L 86.252152 319.467782
L 86.484658 319.465128
L 86.949671 319.307387
L 87.414684 319.294419
L 87.64719 319.471071
L 87.879696 319.494618
L 88.112203 319.326918
L 88.577215 319.53087
L 88.809722 319.34046
L 89.042228 319.368665
L 89.739747 319.055419
L 89.972253 319.179535
L 90.204759 319.10814
L 90.437266 319.238354
L 91.134785 318.991492
L 91.367291 318.891041
L 91.832304 319.041552
L 92.529823 318.99996
L 92.762329 319.090392
L 92.994835 318.931009
L 93.459848 318.833609
L 93.692354 318.705375
L 93.924861 318.856111
L 94.389873 318.652088
L 94.62238 318.694522
L 95.087392 318.478908
L 95.319899 318.603279
L 96.249924 318.375884
L 96.947443 318.512589
L 97.179949 318.385418
L 97.412456 318.498508
L 97.877468 318.426582
L 99.505013 318.661657
L 99.970025 318.610536
L 100.435038 318.758963
L 100.667544 318.717777
L 101.132557 318.925962
L 101.365063 318.928834
L 101.59757 319.16241
L 101.830076 319.18339
L 102.527595 319.640777
L 102.760101 319.557343
L 102.992608 319.759176
L 103.45762 319.746287
L 103.690127 319.899343
L 104.387646 319.849949
L 104.852658 320.090325
L 105.085165 319.997643
L 105.317671 320.083634
L 105.782684 319.986858
L 106.480203 319.710501
L 106.712709 319.505586
L 107.410228 319.544433
L 107.875241 319.347864
L 109.967797 319.12001
L 110.43281 319.171435
L 110.665316 319.120622
L 111.827848 319.41388
L 112.292861 319.317152
L 112.525367 319.136944
L 112.99038 318.978832
L 113.222886 318.853782
L 113.687899 318.782195
L 114.385418 318.644113
L 115.082937 318.673719
L 115.780456 318.654876
L 116.012962 318.748745
L 116.710481 318.534049
L 116.942987 318.65015
L 117.175494 318.622852
L 117.408 318.371068
L 117.640506 318.425302
L 117.873013 318.614849
L 118.338025 318.536613
L 118.803038 318.269845
L 119.035544 318.337566
L 119.268051 318.254473
L 119.733063 318.275897
L 120.198076 318.191773
L 120.430582 318.40105
L 120.663089 318.372766
L 120.895595 318.576438
L 121.128101 318.508352
L 121.360608 318.621199
L 122.058127 318.292943
L 122.290633 318.416113
L 122.523139 318.273797
L 122.988152 318.254184
L 123.220658 318.388878
L 123.453165 318.329801
L 123.685671 318.434874
L 124.38319 318.288478
L 124.848203 318.256295
L 125.313215 318.100093
L 125.545722 318.437035
L 126.475747 318.606183
L 127.405772 318.289052
L 127.870785 318.185602
L 128.80081 318.384247
L 129.498329 318.082668
L 130.195848 318.025349
L 130.893367 318.218472
L 131.125873 318.287307
L 131.35838 318.116304
L 131.590886 318.333404
L 131.823392 318.256813
L 132.055899 318.394303
L 132.520911 318.316757
L 133.915949 318.081707
L 134.613468 318.557921
L 134.845975 318.53201
L 135.310987 318.721679
L 135.543494 318.725986
L 135.776 318.550752
L 136.241013 318.750484
L 136.473519 318.621278
L 136.706025 318.651032
L 136.938532 318.505687
L 139.961114 318.568271
L 140.19362 318.736036
L 141.588658 318.151262
L 142.983696 318.211727
L 143.216203 318.190945
L 143.681215 318.509455
L 143.913722 318.602962
L 144.611241 318.408708
L 144.843747 318.569239
L 145.076253 318.557088
L 145.541266 318.431553
L 146.238785 318.488755
L 146.471291 318.250619
L 146.936304 318.282103
L 147.633823 318.579165
L 147.866329 318.521465
L 148.098835 318.655994
L 148.331342 318.611602
L 148.563848 318.346552
L 148.796354 318.269895
L 149.958886 318.880967
L 150.656405 318.604999
L 151.353924 318.473159
L 151.58643 318.673777
L 151.818937 318.609201
L 152.283949 318.791554
L 152.516456 318.764494
L 152.748962 318.611533
L 153.446481 318.594767
L 153.911494 318.383989
L 154.144 318.483916
L 154.376506 318.428651
L 155.074025 318.727682
L 155.306532 318.695239
L 155.771544 318.801435
L 156.236557 319.007156
L 156.70157 318.87663
L 157.166582 318.753883
L 157.399089 318.945585
L 158.096608 318.799541
L 159.956658 318.299434
L 160.189165 318.517049
L 160.421671 318.473009
L 160.654177 318.580651
L 160.654177 318.580651
" clip-path="url(#p82582e15d9)" style="fill: none; stroke: #d28a35; stroke-width: 1.15; stroke-linecap: square"/>
   </g>
   <g id="patch_4">
    <path d="M 21.15038 339.087095
L 21.15038 168.946555
" style="fill: none; stroke: #000000; stroke-width: 0.8; stroke-linejoin: miter; stroke-linecap: square"/>
   </g>
   <g id="patch_5">
    <path d="M 21.15038 339.087095
L 160.654177 339.087095
" style="fill: none; stroke: #000000; stroke-width: 0.8; stroke-linejoin: miter; stroke-linecap: square"/>
   </g>
   <g id="text_23">
    <!-- Five-dimensional trajectory, $\sin\theta_i(t)$ -->
    <g style="fill: #4b5560" transform="translate(21.15038 162.522338)">
     <text>
      <tspan x="0" y="-0.390625" style="font-weight: 700; font-size: 6px; font-family: 'Arial'; fill: #4b5560">F</tspan>
      <tspan x="3.665039" y="-0.390625" style="font-weight: 700; font-size: 6px; font-family: 'Arial'; fill: #4b5560">i</tspan>
      <tspan x="5.332031" y="-0.390625" style="font-weight: 700; font-size: 6px; font-family: 'Arial'; fill: #4b5560">v</tspan>
      <tspan x="8.668945" y="-0.390625" style="font-weight: 700; font-size: 6px; font-family: 'Arial'; fill: #4b5560">e</tspan>
      <tspan x="12.005859" y="-0.390625" style="font-weight: 700; font-size: 6px; font-family: 'Arial'; fill: #4b5560">-</tspan>
      <tspan x="14.003906" y="-0.390625" style="font-weight: 700; font-size: 6px; font-family: 'Arial'; fill: #4b5560">d</tspan>
      <tspan x="17.668945" y="-0.390625" style="font-weight: 700; font-size: 6px; font-family: 'Arial'; fill: #4b5560">i</tspan>
      <tspan x="19.335938" y="-0.390625" style="font-weight: 700; font-size: 6px; font-family: 'Arial'; fill: #4b5560">m</tspan>
      <tspan x="24.670898" y="-0.390625" style="font-weight: 700; font-size: 6px; font-family: 'Arial'; fill: #4b5560">e</tspan>
      <tspan x="28.007812" y="-0.390625" style="font-weight: 700; font-size: 6px; font-family: 'Arial'; fill: #4b5560">n</tspan>
      <tspan x="31.672852" y="-0.390625" style="font-weight: 700; font-size: 6px; font-family: 'Arial'; fill: #4b5560">s</tspan>
      <tspan x="35.009766" y="-0.390625" style="font-weight: 700; font-size: 6px; font-family: 'Arial'; fill: #4b5560">i</tspan>
      <tspan x="36.676758" y="-0.390625" style="font-weight: 700; font-size: 6px; font-family: 'Arial'; fill: #4b5560">o</tspan>
      <tspan x="40.341797" y="-0.390625" style="font-weight: 700; font-size: 6px; font-family: 'Arial'; fill: #4b5560">n</tspan>
      <tspan x="44.006836" y="-0.390625" style="font-weight: 700; font-size: 6px; font-family: 'Arial'; fill: #4b5560">a</tspan>
      <tspan x="47.34375" y="-0.390625" style="font-weight: 700; font-size: 6px; font-family: 'Arial'; fill: #4b5560">l</tspan>
      <tspan x="49.010742" y="-0.390625" style="font-weight: 700; font-size: 6px; font-family: 'Arial'; fill: #4b5560"> </tspan>
      <tspan x="50.677734" y="-0.390625" style="font-weight: 700; font-size: 6px; font-family: 'Arial'; fill: #4b5560">t</tspan>
      <tspan x="52.675781" y="-0.390625" style="font-weight: 700; font-size: 6px; font-family: 'Arial'; fill: #4b5560">r</tspan>
      <tspan x="55.010742" y="-0.390625" style="font-weight: 700; font-size: 6px; font-family: 'Arial'; fill: #4b5560">a</tspan>
      <tspan x="58.347656" y="-0.390625" style="font-weight: 700; font-size: 6px; font-family: 'Arial'; fill: #4b5560">j</tspan>
      <tspan x="60.014648" y="-0.390625" style="font-weight: 700; font-size: 6px; font-family: 'Arial'; fill: #4b5560">e</tspan>
      <tspan x="63.351562" y="-0.390625" style="font-weight: 700; font-size: 6px; font-family: 'Arial'; fill: #4b5560">c</tspan>
      <tspan x="66.688477" y="-0.390625" style="font-weight: 700; font-size: 6px; font-family: 'Arial'; fill: #4b5560">t</tspan>
      <tspan x="68.686523" y="-0.390625" style="font-weight: 700; font-size: 6px; font-family: 'Arial'; fill: #4b5560">o</tspan>
      <tspan x="72.351562" y="-0.390625" style="font-weight: 700; font-size: 6px; font-family: 'Arial'; fill: #4b5560">r</tspan>
      <tspan x="74.686523" y="-0.390625" style="font-weight: 700; font-size: 6px; font-family: 'Arial'; fill: #4b5560">y</tspan>
      <tspan x="78.023438" y="-0.390625" style="font-weight: 700; font-size: 6px; font-family: 'Arial'; fill: #4b5560">,</tspan>
      <tspan x="79.69043" y="-0.390625" style="font-weight: 700; font-size: 6px; font-family: 'Arial'; fill: #4b5560"> </tspan>
      <tspan x="81.357422" y="-0.390625" style="font-size: 6px; font-family: 'DejaVu Sans'; fill: #4b5560">s</tspan>
      <tspan x="84.483398" y="-0.390625" style="font-size: 6px; font-family: 'DejaVu Sans'; fill: #4b5560">i</tspan>
      <tspan x="86.150391" y="-0.390625" style="font-size: 6px; font-family: 'DejaVu Sans'; fill: #4b5560">n</tspan>
      <tspan x="95.929121" y="-0.390625" style="font-size: 6px; font-family: 'DejaVu Sans'; fill: #4b5560">(</tspan>
      <tspan x="100.62248" y="-0.390625" style="font-size: 6px; font-family: 'DejaVu Sans'; fill: #4b5560">)</tspan>
      <tspan x="90.927266" y="-0.390625" style="font-style: oblique; font-size: 6px; font-family: 'DejaVu Sans'; fill: #4b5560">θ</tspan>
      <tspan x="98.269941" y="-0.390625" style="font-style: oblique; font-size: 6px; font-family: 'DejaVu Sans'; fill: #4b5560">t</tspan>
      <tspan x="94.598164" y="0.59375" style="font-style: oblique; font-size: 4.2px; font-family: 'DejaVu Sans'; fill: #4b5560">i</tspan>
     </text>
    </g>
   </g>
  </g>
  <g id="axes_3">
   <g id="patch_6">
    <path d="M 229.198177 179.308045
L 492.89438 179.308045
L 492.89438 29.487095
L 229.198177 29.487095
z
" style="fill: #ffffff"/>
   </g>
   <g id="line2d_25">
    <path d="M 235.629792 179.308045
L 235.629792 29.487095
" clip-path="url(#p12e1e84584)" style="fill: none; stroke: #e9edf0; stroke-width: 0.7; stroke-linecap: square"/>
   </g>
   <g id="matplotlib.axis_3">
    <g id="xtick_8">
     <g id="line2d_26">
      <g>
       <use xlink:href="#ma6e0caf999" x="235.629792" y="179.308045" style="stroke: #000000; stroke-width: 0.8"/>
      </g>
     </g>
    </g>
    <g id="xtick_9">
     <g id="line2d_27">
      <g>
       <use xlink:href="#ma6e0caf999" x="266.029834" y="179.308045" style="stroke: #000000; stroke-width: 0.8"/>
      </g>
     </g>
    </g>
    <g id="xtick_10">
     <g id="line2d_28">
      <g>
       <use xlink:href="#ma6e0caf999" x="296.429876" y="179.308045" style="stroke: #000000; stroke-width: 0.8"/>
      </g>
     </g>
    </g>
    <g id="xtick_11">
     <g id="line2d_29">
      <g>
       <use xlink:href="#ma6e0caf999" x="326.829918" y="179.308045" style="stroke: #000000; stroke-width: 0.8"/>
      </g>
     </g>
    </g>
    <g id="xtick_12">
     <g id="line2d_30">
      <g>
       <use xlink:href="#ma6e0caf999" x="357.22996" y="179.308045" style="stroke: #000000; stroke-width: 0.8"/>
      </g>
     </g>
    </g>
    <g id="xtick_13">
     <g id="line2d_31">
      <g>
       <use xlink:href="#ma6e0caf999" x="387.630002" y="179.308045" style="stroke: #000000; stroke-width: 0.8"/>
      </g>
     </g>
    </g>
    <g id="xtick_14">
     <g id="line2d_32">
      <g>
       <use xlink:href="#ma6e0caf999" x="418.030044" y="179.308045" style="stroke: #000000; stroke-width: 0.8"/>
      </g>
     </g>
    </g>
    <g id="xtick_15">
     <g id="line2d_33">
      <g>
       <use xlink:href="#ma6e0caf999" x="448.430086" y="179.308045" style="stroke: #000000; stroke-width: 0.8"/>
      </g>
     </g>
    </g>
    <g id="xtick_16">
     <g id="line2d_34">
      <g>
       <use xlink:href="#ma6e0caf999" x="478.830128" y="179.308045" style="stroke: #000000; stroke-width: 0.8"/>
      </g>
     </g>
    </g>
   </g>
   <g id="matplotlib.axis_4">
    <g id="ytick_6">
     <g id="line2d_35"/>
     <g id="text_24">
      <text style="font-size: 5.2px; font-family: 'Arial', 'Helvetica', 'DejaVu Sans', sans-serif; text-anchor: end" x="226.198177" y="39.595801" transform="rotate(-0 226.198177 39.595801)">{12}|{345}</text>
     </g>
    </g>
    <g id="ytick_7">
     <g id="line2d_36"/>
     <g id="text_25">
      <text style="font-size: 5.2px; font-family: 'Arial', 'Helvetica', 'DejaVu Sans', sans-serif; text-anchor: end" x="226.198177" y="49.261669" transform="rotate(-0 226.198177 49.261669)">{1245}|{3}</text>
     </g>
    </g>
    <g id="ytick_8">
     <g id="line2d_37"/>
     <g id="text_26">
      <text style="font-size: 5.2px; font-family: 'Arial', 'Helvetica', 'DejaVu Sans', sans-serif; text-anchor: end" x="226.198177" y="58.927537" transform="rotate(-0 226.198177 58.927537)">{123}|{45}</text>
     </g>
    </g>
    <g id="ytick_9">
     <g id="line2d_38"/>
     <g id="text_27">
      <text style="font-size: 5.2px; font-family: 'Arial', 'Helvetica', 'DejaVu Sans', sans-serif; text-anchor: end" x="226.198177" y="68.593405" transform="rotate(-0 226.198177 68.593405)">{1234}|{5}</text>
     </g>
    </g>
    <g id="ytick_10">
     <g id="line2d_39"/>
     <g id="text_28">
      <text style="font-size: 5.2px; font-family: 'Arial', 'Helvetica', 'DejaVu Sans', sans-serif; text-anchor: end" x="226.198177" y="78.259272" transform="rotate(-0 226.198177 78.259272)">{1235}|{4}</text>
     </g>
    </g>
    <g id="ytick_11">
     <g id="line2d_40"/>
     <g id="text_29">
      <text style="font-size: 5.2px; font-family: 'Arial', 'Helvetica', 'DejaVu Sans', sans-serif; text-anchor: end" x="226.198177" y="87.92514" transform="rotate(-0 226.198177 87.92514)">{1}|{2345}</text>
     </g>
    </g>
    <g id="ytick_12">
     <g id="line2d_41"/>
     <g id="text_30">
      <text style="font-size: 5.2px; font-family: 'Arial', 'Helvetica', 'DejaVu Sans', sans-serif; text-anchor: end" x="226.198177" y="97.591008" transform="rotate(-0 226.198177 97.591008)">{1345}|{2}</text>
     </g>
    </g>
    <g id="ytick_13">
     <g id="line2d_42"/>
     <g id="text_31">
      <text style="font-size: 5.2px; font-family: 'Arial', 'Helvetica', 'DejaVu Sans', sans-serif; text-anchor: end" x="226.198177" y="107.256876" transform="rotate(-0 226.198177 107.256876)">{124}|{35}</text>
     </g>
    </g>
    <g id="ytick_14">
     <g id="line2d_43"/>
     <g id="text_32">
      <text style="font-size: 5.2px; font-family: 'Arial', 'Helvetica', 'DejaVu Sans', sans-serif; text-anchor: end" x="226.198177" y="116.922744" transform="rotate(-0 226.198177 116.922744)">{125}|{34}</text>
     </g>
    </g>
    <g id="ytick_15">
     <g id="line2d_44"/>
     <g id="text_33">
      <text style="font-size: 5.2px; font-family: 'Arial', 'Helvetica', 'DejaVu Sans', sans-serif; text-anchor: end" x="226.198177" y="126.588611" transform="rotate(-0 226.198177 126.588611)">{13}|{245}</text>
     </g>
    </g>
    <g id="ytick_16">
     <g id="line2d_45"/>
     <g id="text_34">
      <text style="font-size: 5.2px; font-family: 'Arial', 'Helvetica', 'DejaVu Sans', sans-serif; text-anchor: end" x="226.198177" y="136.254479" transform="rotate(-0 226.198177 136.254479)">{145}|{23}</text>
     </g>
    </g>
    <g id="ytick_17">
     <g id="line2d_46"/>
     <g id="text_35">
      <text style="font-size: 5.2px; font-family: 'Arial', 'Helvetica', 'DejaVu Sans', sans-serif; text-anchor: end" x="226.198177" y="145.920347" transform="rotate(-0 226.198177 145.920347)">{15}|{234}</text>
     </g>
    </g>
    <g id="ytick_18">
     <g id="line2d_47"/>
     <g id="text_36">
      <text style="font-size: 5.2px; font-family: 'Arial', 'Helvetica', 'DejaVu Sans', sans-serif; text-anchor: end" x="226.198177" y="155.586215" transform="rotate(-0 226.198177 155.586215)">{14}|{235}</text>
     </g>
    </g>
    <g id="ytick_19">
     <g id="line2d_48"/>
     <g id="text_37">
      <text style="font-size: 5.2px; font-family: 'Arial', 'Helvetica', 'DejaVu Sans', sans-serif; text-anchor: end" x="226.198177" y="165.252082" transform="rotate(-0 226.198177 165.252082)">{134}|{25}</text>
     </g>
    </g>
    <g id="ytick_20">
     <g id="line2d_49"/>
     <g id="text_38">
      <text style="font-size: 5.2px; font-family: 'Arial', 'Helvetica', 'DejaVu Sans', sans-serif; text-anchor: end" x="226.198177" y="174.91795" transform="rotate(-0 226.198177 174.91795)">{135}|{24}</text>
     </g>
    </g>
   </g>
   <g id="patch_7">
    <path d="M 235.629792 40.022891
L 465.330317 40.022891
L 465.330317 35.383274
L 235.629792 35.383274
z
" clip-path="url(#p12e1e84584)" style="fill: #315f8c"/>
   </g>
   <g id="patch_8">
    <path d="M 235.629792 49.688759
L 386.481036 49.688759
L 386.481036 45.049142
L 235.629792 45.049142
z
" clip-path="url(#p12e1e84584)" style="fill: #aeb6be"/>
   </g>
   <g id="patch_9">
    <path d="M 235.629792 59.354626
L 374.749951 59.354626
L 374.749951 54.71501
L 235.629792 54.71501
z
" clip-path="url(#p12e1e84584)" style="fill: #aeb6be"/>
   </g>
   <g id="patch_10">
    <path d="M 235.629792 69.020494
L 374.341158 69.020494
L 374.341158 64.380878
L 235.629792 64.380878
z
" clip-path="url(#p12e1e84584)" style="fill: #aeb6be"/>
   </g>
   <g id="patch_11">
    <path d="M 235.629792 78.686362
L 372.651035 78.686362
L 372.651035 74.046745
L 235.629792 74.046745
z
" clip-path="url(#p12e1e84584)" style="fill: #aeb6be"/>
   </g>
   <g id="patch_12">
    <path d="M 235.629792 88.35223
L 367.144435 88.35223
L 367.144435 83.712613
L 235.629792 83.712613
z
" clip-path="url(#p12e1e84584)" style="fill: #aeb6be"/>
   </g>
   <g id="patch_13">
    <path d="M 235.629792 98.018098
L 366.577354 98.018098
L 366.577354 93.378481
L 235.629792 93.378481
z
" clip-path="url(#p12e1e84584)" style="fill: #aeb6be"/>
   </g>
   <g id="patch_14">
    <path d="M 235.629792 107.683965
L 364.359206 107.683965
L 364.359206 103.044349
L 235.629792 103.044349
z
" clip-path="url(#p12e1e84584)" style="fill: #aeb6be"/>
   </g>
   <g id="patch_15">
    <path d="M 235.629792 117.349833
L 363.47411 117.349833
L 363.47411 112.710217
L 235.629792 112.710217
z
" clip-path="url(#p12e1e84584)" style="fill: #aeb6be"/>
   </g>
   <g id="patch_16">
    <path d="M 235.629792 127.015701
L 269.476167 127.015701
L 269.476167 122.376084
L 235.629792 122.376084
z
" clip-path="url(#p12e1e84584)" style="fill: #aeb6be"/>
   </g>
   <g id="patch_17">
    <path d="M 235.629792 136.681569
L 268.099007 136.681569
L 268.099007 132.041952
L 235.629792 132.041952
z
" clip-path="url(#p12e1e84584)" style="fill: #aeb6be"/>
   </g>
   <g id="patch_18">
    <path d="M 235.629792 146.347436
L 257.492962 146.347436
L 257.492962 141.70782
L 235.629792 141.70782
z
" clip-path="url(#p12e1e84584)" style="fill: #aeb6be"/>
   </g>
   <g id="patch_19">
    <path d="M 235.629792 156.013304
L 256.878989 156.013304
L 256.878989 151.373688
L 235.629792 151.373688
z
" clip-path="url(#p12e1e84584)" style="fill: #aeb6be"/>
   </g>
   <g id="patch_20">
    <path d="M 235.629792 165.679172
L 256.8172 165.679172
L 256.8172 161.039555
L 235.629792 161.039555
z
" clip-path="url(#p12e1e84584)" style="fill: #aeb6be"/>
   </g>
   <g id="patch_21">
    <path d="M 235.629792 175.34504
L 256.77855 175.34504
L 256.77855 170.705423
L 235.629792 170.705423
z
" clip-path="url(#p12e1e84584)" style="fill: #aeb6be"/>
   </g>
   <g id="patch_22">
    <path d="M 229.198177 179.308045
L 492.89438 179.308045
" style="fill: none; stroke: #000000; stroke-width: 0.8; stroke-linejoin: miter; stroke-linecap: square"/>
   </g>
   <g id="PathCollection_6">
    <path d="M 465.330317 40.203083
C 465.993325 40.203083 466.629266 39.939667 467.098084 39.47085
C 467.566901 39.002032 467.830317 38.36609 467.830317 37.703083
C 467.830317 37.040075 467.566901 36.404133 467.098084 35.935316
C 466.629266 35.466498 465.993325 35.203083 465.330317 35.203083
C 464.667309 35.203083 464.031367 35.466498 463.56255 35.935316
C 463.093733 36.404133 462.830317 37.040075 462.830317 37.703083
C 462.830317 38.36609 463.093733 39.002032 463.56255 39.47085
C 464.031367 39.939667 464.667309 40.203083 465.330317 40.203083
z
" clip-path="url(#p12e1e84584)" style="fill: #315f8c; stroke: #ffffff; stroke-width: 0.35"/>
    <path d="M 386.481036 48.950089
C 386.900359 48.950089 387.302564 48.78349 387.59907 48.486984
C 387.895576 48.190478 388.062175 47.788273 388.062175 47.36895
C 388.062175 46.949627 387.895576 46.547423 387.59907 46.250916
C 387.302564 45.95441 386.900359 45.787812 386.481036 45.787812
C 386.061713 45.787812 385.659508 45.95441 385.363002 46.250916
C 385.066496 46.547423 384.899897 46.949627 384.899897 47.36895
C 384.899897 47.788273 385.066496 48.190478 385.363002 48.486984
C 385.659508 48.78349 386.061713 48.950089 386.481036 48.950089
z
" clip-path="url(#p12e1e84584)" style="fill: #aeb6be; stroke: #ffffff; stroke-width: 0.35"/>
    <path d="M 374.749951 58.615957
C 375.169274 58.615957 375.571479 58.449358 375.867985 58.152852
C 376.164491 57.856346 376.331089 57.454141 376.331089 57.034818
C 376.331089 56.615495 376.164491 56.21329 375.867985 55.916784
C 375.571479 55.620278 375.169274 55.453679 374.749951 55.453679
C 374.330628 55.453679 373.928423 55.620278 373.631917 55.916784
C 373.335411 56.21329 373.168812 56.615495 373.168812 57.034818
C 373.168812 57.454141 373.335411 57.856346 373.631917 58.152852
C 373.928423 58.449358 374.330628 58.615957 374.749951 58.615957
z
" clip-path="url(#p12e1e84584)" style="fill: #aeb6be; stroke: #ffffff; stroke-width: 0.35"/>
    <path d="M 374.341158 68.281825
C 374.760481 68.281825 375.162686 68.115226 375.459192 67.81872
C 375.755698 67.522214 375.922297 67.120009 375.922297 66.700686
C 375.922297 66.281363 375.755698 65.879158 375.459192 65.582652
C 375.162686 65.286146 374.760481 65.119547 374.341158 65.119547
C 373.921835 65.119547 373.51963 65.286146 373.223124 65.582652
C 372.926618 65.879158 372.760019 66.281363 372.760019 66.700686
C 372.760019 67.120009 372.926618 67.522214 373.223124 67.81872
C 373.51963 68.115226 373.921835 68.281825 374.341158 68.281825
z
" clip-path="url(#p12e1e84584)" style="fill: #aeb6be; stroke: #ffffff; stroke-width: 0.35"/>
    <path d="M 372.651035 77.947693
C 373.070358 77.947693 373.472563 77.781094 373.769069 77.484588
C 374.065575 77.188082 374.232174 76.785877 374.232174 76.366554
C 374.232174 75.947231 374.065575 75.545026 373.769069 75.24852
C 373.472563 74.952014 373.070358 74.785415 372.651035 74.785415
C 372.231712 74.785415 371.829507 74.952014 371.533001 75.24852
C 371.236495 75.545026 371.069896 75.947231 371.069896 76.366554
C 371.069896 76.785877 371.236495 77.188082 371.533001 77.484588
C 371.829507 77.781094 372.231712 77.947693 372.651035 77.947693
z
" clip-path="url(#p12e1e84584)" style="fill: #aeb6be; stroke: #ffffff; stroke-width: 0.35"/>
    <path d="M 367.144435 87.61356
C 367.563758 87.61356 367.965963 87.446962 368.262469 87.150455
C 368.558975 86.853949 368.725573 86.451744 368.725573 86.032421
C 368.725573 85.613099 368.558975 85.210894 368.262469 84.914387
C 367.965963 84.617881 367.563758 84.451283 367.144435 84.451283
C 366.725112 84.451283 366.322907 84.617881 366.026401 84.914387
C 365.729895 85.210894 365.563296 85.613099 365.563296 86.032421
C 365.563296 86.451744 365.729895 86.853949 366.026401 87.150455
C 366.322907 87.446962 366.725112 87.61356 367.144435 87.61356
z
" clip-path="url(#p12e1e84584)" style="fill: #aeb6be; stroke: #ffffff; stroke-width: 0.35"/>
    <path d="M 366.577354 97.279428
C 366.996677 97.279428 367.398882 97.112829 367.695388 96.816323
C 367.991894 96.519817 368.158493 96.117612 368.158493 95.698289
C 368.158493 95.278966 367.991894 94.876761 367.695388 94.580255
C 367.398882 94.283749 366.996677 94.11715 366.577354 94.11715
C 366.158031 94.11715 365.755826 94.283749 365.45932 94.580255
C 365.162814 94.876761 364.996216 95.278966 364.996216 95.698289
C 364.996216 96.117612 365.162814 96.519817 365.45932 96.816323
C 365.755826 97.112829 366.158031 97.279428 366.577354 97.279428
z
" clip-path="url(#p12e1e84584)" style="fill: #aeb6be; stroke: #ffffff; stroke-width: 0.35"/>
    <path d="M 364.359206 106.945296
C 364.778529 106.945296 365.180734 106.778697 365.47724 106.482191
C 365.773746 106.185685 365.940345 105.78348 365.940345 105.364157
C 365.940345 104.944834 365.773746 104.542629 365.47724 104.246123
C 365.180734 103.949617 364.778529 103.783018 364.359206 103.783018
C 363.939883 103.783018 363.537678 103.949617 363.241172 104.246123
C 362.944666 104.542629 362.778067 104.944834 362.778067 105.364157
C 362.778067 105.78348 362.944666 106.185685 363.241172 106.482191
C 363.537678 106.778697 363.939883 106.945296 364.359206 106.945296
z
" clip-path="url(#p12e1e84584)" style="fill: #aeb6be; stroke: #ffffff; stroke-width: 0.35"/>
    <path d="M 363.47411 116.611164
C 363.893433 116.611164 364.295638 116.444565 364.592144 116.148059
C 364.88865 115.851553 365.055249 115.449348 365.055249 115.030025
C 365.055249 114.610702 364.88865 114.208497 364.592144 113.911991
C 364.295638 113.615485 363.893433 113.448886 363.47411 113.448886
C 363.054787 113.448886 362.652582 113.615485 362.356076 113.911991
C 362.05957 114.208497 361.892971 114.610702 361.892971 115.030025
C 361.892971 115.449348 362.05957 115.851553 362.356076 116.148059
C 362.652582 116.444565 363.054787 116.611164 363.47411 116.611164
z
" clip-path="url(#p12e1e84584)" style="fill: #aeb6be; stroke: #ffffff; stroke-width: 0.35"/>
    <path d="M 269.476167 126.277031
C 269.89549 126.277031 270.297695 126.110433 270.594201 125.813927
C 270.890707 125.51742 271.057306 125.115215 271.057306 124.695893
C 271.057306 124.27657 270.890707 123.874365 270.594201 123.577859
C 270.297695 123.281352 269.89549 123.114754 269.476167 123.114754
C 269.056844 123.114754 268.654639 123.281352 268.358133 123.577859
C 268.061627 123.874365 267.895029 124.27657 267.895029 124.695893
C 267.895029 125.115215 268.061627 125.51742 268.358133 125.813927
C 268.654639 126.110433 269.056844 126.277031 269.476167 126.277031
z
" clip-path="url(#p12e1e84584)" style="fill: #aeb6be; stroke: #ffffff; stroke-width: 0.35"/>
    <path d="M 268.099007 135.942899
C 268.51833 135.942899 268.920535 135.7763 269.217041 135.479794
C 269.513547 135.183288 269.680146 134.781083 269.680146 134.36176
C 269.680146 133.942437 269.513547 133.540232 269.217041 133.243726
C 268.920535 132.94722 268.51833 132.780622 268.099007 132.780622
C 267.679684 132.780622 267.277479 132.94722 266.980973 133.243726
C 266.684467 133.540232 266.517868 133.942437 266.517868 134.36176
C 266.517868 134.781083 266.684467 135.183288 266.980973 135.479794
C 267.277479 135.7763 267.679684 135.942899 268.099007 135.942899
z
" clip-path="url(#p12e1e84584)" style="fill: #aeb6be; stroke: #ffffff; stroke-width: 0.35"/>
    <path d="M 257.492962 145.608767
C 257.912285 145.608767 258.31449 145.442168 258.610996 145.145662
C 258.907502 144.849156 259.074101 144.446951 259.074101 144.027628
C 259.074101 143.608305 258.907502 143.2061 258.610996 142.909594
C 258.31449 142.613088 257.912285 142.446489 257.492962 142.446489
C 257.073639 142.446489 256.671434 142.613088 256.374928 142.909594
C 256.078422 143.2061 255.911823 143.608305 255.911823 144.027628
C 255.911823 144.446951 256.078422 144.849156 256.374928 145.145662
C 256.671434 145.442168 257.073639 145.608767 257.492962 145.608767
z
" clip-path="url(#p12e1e84584)" style="fill: #aeb6be; stroke: #ffffff; stroke-width: 0.35"/>
    <path d="M 256.878989 155.274635
C 257.298312 155.274635 257.700517 155.108036 257.997023 154.81153
C 258.293529 154.515024 258.460128 154.112819 258.460128 153.693496
C 258.460128 153.274173 258.293529 152.871968 257.997023 152.575462
C 257.700517 152.278956 257.298312 152.112357 256.878989 152.112357
C 256.459666 152.112357 256.057461 152.278956 255.760955 152.575462
C 255.464449 152.871968 255.29785 153.274173 255.29785 153.693496
C 255.29785 154.112819 255.464449 154.515024 255.760955 154.81153
C 256.057461 155.108036 256.459666 155.274635 256.878989 155.274635
z
" clip-path="url(#p12e1e84584)" style="fill: #aeb6be; stroke: #ffffff; stroke-width: 0.35"/>
    <path d="M 256.8172 164.940502
C 257.236523 164.940502 257.638728 164.773904 257.935234 164.477398
C 258.23174 164.180892 258.398339 163.778687 258.398339 163.359364
C 258.398339 162.940041 258.23174 162.537836 257.935234 162.24133
C 257.638728 161.944824 257.236523 161.778225 256.8172 161.778225
C 256.397877 161.778225 255.995672 161.944824 255.699166 162.24133
C 255.40266 162.537836 255.236061 162.940041 255.236061 163.359364
C 255.236061 163.778687 255.40266 164.180892 255.699166 164.477398
C 255.995672 164.773904 256.397877 164.940502 256.8172 164.940502
z
" clip-path="url(#p12e1e84584)" style="fill: #aeb6be; stroke: #ffffff; stroke-width: 0.35"/>
    <path d="M 256.77855 174.60637
C 257.197873 174.60637 257.600078 174.439771 257.896584 174.143265
C 258.19309 173.846759 258.359689 173.444554 258.359689 173.025231
C 258.359689 172.605908 258.19309 172.203703 257.896584 171.907197
C 257.600078 171.610691 257.197873 171.444093 256.77855 171.444093
C 256.359227 171.444093 255.957022 171.610691 255.660516 171.907197
C 255.36401 172.203703 255.197411 172.605908 255.197411 173.025231
C 255.197411 173.444554 255.36401 173.846759 255.660516 174.143265
C 255.957022 174.439771 256.359227 174.60637 256.77855 174.60637
z
" clip-path="url(#p12e1e84584)" style="fill: #aeb6be; stroke: #ffffff; stroke-width: 0.35"/>
   </g>
   <g id="text_39">
    <!-- Root $\{1,2,3,4,5\}$ · 15 candidate cuts -->
    <g style="fill: #4b5560" transform="translate(229.198177 16.277888)">
     <text>
      <tspan x="0" y="-0.4375" style="font-weight: 700; font-size: 6.2px; font-family: 'Arial'; fill: #4b5560">R</tspan>
      <tspan x="4.51355" y="-0.4375" style="font-weight: 700; font-size: 6.2px; font-family: 'Arial'; fill: #4b5560">o</tspan>
      <tspan x="8.331299" y="-0.4375" style="font-weight: 700; font-size: 6.2px; font-family: 'Arial'; fill: #4b5560">o</tspan>
      <tspan x="12.149048" y="-0.4375" style="font-weight: 700; font-size: 6.2px; font-family: 'Arial'; fill: #4b5560">t</tspan>
      <tspan x="14.230347" y="-0.4375" style="font-weight: 700; font-size: 6.2px; font-family: 'Arial'; fill: #4b5560"> </tspan>
      <tspan x="56.494263" y="-0.4375" style="font-weight: 700; font-size: 6.2px; font-family: 'Arial'; fill: #4b5560"> </tspan>
      <tspan x="58.230713" y="-0.4375" style="font-weight: 700; font-size: 6.2px; font-family: 'Arial'; fill: #4b5560">·</tspan>
      <tspan x="60.312012" y="-0.4375" style="font-weight: 700; font-size: 6.2px; font-family: 'Arial'; fill: #4b5560"> </tspan>
      <tspan x="62.048462" y="-0.4375" style="font-weight: 700; font-size: 6.2px; font-family: 'Arial'; fill: #4b5560">1</tspan>
      <tspan x="65.524414" y="-0.4375" style="font-weight: 700; font-size: 6.2px; font-family: 'Arial'; fill: #4b5560">5</tspan>
      <tspan x="69.000366" y="-0.4375" style="font-weight: 700; font-size: 6.2px; font-family: 'Arial'; fill: #4b5560"> </tspan>
      <tspan x="70.736816" y="-0.4375" style="font-weight: 700; font-size: 6.2px; font-family: 'Arial'; fill: #4b5560">c</tspan>
      <tspan x="74.212769" y="-0.4375" style="font-weight: 700; font-size: 6.2px; font-family: 'Arial'; fill: #4b5560">a</tspan>
      <tspan x="77.688721" y="-0.4375" style="font-weight: 700; font-size: 6.2px; font-family: 'Arial'; fill: #4b5560">n</tspan>
      <tspan x="81.50647" y="-0.4375" style="font-weight: 700; font-size: 6.2px; font-family: 'Arial'; fill: #4b5560">d</tspan>
      <tspan x="85.324219" y="-0.4375" style="font-weight: 700; font-size: 6.2px; font-family: 'Arial'; fill: #4b5560">i</tspan>
      <tspan x="87.060669" y="-0.4375" style="font-weight: 700; font-size: 6.2px; font-family: 'Arial'; fill: #4b5560">d</tspan>
      <tspan x="90.878418" y="-0.4375" style="font-weight: 700; font-size: 6.2px; font-family: 'Arial'; fill: #4b5560">a</tspan>
      <tspan x="94.35437" y="-0.4375" style="font-weight: 700; font-size: 6.2px; font-family: 'Arial'; fill: #4b5560">t</tspan>
      <tspan x="96.435669" y="-0.4375" style="font-weight: 700; font-size: 6.2px; font-family: 'Arial'; fill: #4b5560">e</tspan>
      <tspan x="99.911621" y="-0.4375" style="font-weight: 700; font-size: 6.2px; font-family: 'Arial'; fill: #4b5560"> </tspan>
      <tspan x="101.648071" y="-0.4375" style="font-weight: 700; font-size: 6.2px; font-family: 'Arial'; fill: #4b5560">c</tspan>
      <tspan x="105.124023" y="-0.4375" style="font-weight: 700; font-size: 6.2px; font-family: 'Arial'; fill: #4b5560">u</tspan>
      <tspan x="108.941772" y="-0.4375" style="font-weight: 700; font-size: 6.2px; font-family: 'Arial'; fill: #4b5560">t</tspan>
      <tspan x="111.023071" y="-0.4375" style="font-weight: 700; font-size: 6.2px; font-family: 'Arial'; fill: #4b5560">s</tspan>
      <tspan x="15.966797" y="-0.4375" style="font-size: 6.2px; font-family: 'DejaVu Sans'; fill: #4b5560">{</tspan>
      <tspan x="19.943237" y="-0.4375" style="font-size: 6.2px; font-family: 'DejaVu Sans'; fill: #4b5560">1</tspan>
      <tspan x="23.919678" y="-0.4375" style="font-size: 6.2px; font-family: 'DejaVu Sans'; fill: #4b5560">,</tspan>
      <tspan x="27.124023" y="-0.4375" style="font-size: 6.2px; font-family: 'DejaVu Sans'; fill: #4b5560">2</tspan>
      <tspan x="31.100464" y="-0.4375" style="font-size: 6.2px; font-family: 'DejaVu Sans'; fill: #4b5560">,</tspan>
      <tspan x="34.30481" y="-0.4375" style="font-size: 6.2px; font-family: 'DejaVu Sans'; fill: #4b5560">3</tspan>
      <tspan x="38.28125" y="-0.4375" style="font-size: 6.2px; font-family: 'DejaVu Sans'; fill: #4b5560">,</tspan>
      <tspan x="41.485596" y="-0.4375" style="font-size: 6.2px; font-family: 'DejaVu Sans'; fill: #4b5560">4</tspan>
      <tspan x="45.462036" y="-0.4375" style="font-size: 6.2px; font-family: 'DejaVu Sans'; fill: #4b5560">,</tspan>
      <tspan x="48.666382" y="-0.4375" style="font-size: 6.2px; font-family: 'DejaVu Sans'; fill: #4b5560">5</tspan>
      <tspan x="52.517822" y="-0.4375" style="font-size: 6.2px; font-family: 'DejaVu Sans'; fill: #4b5560">}</tspan>
     </text>
    </g>
   </g>
   <g id="text_40">
    <text style="font-weight: 700; font-size: 5.6px; font-family: 'Arial', 'Helvetica', 'DejaVu Sans', sans-serif; text-anchor: start; fill: #315f8c" x="474.334577" y="39.154708" transform="rotate(-0 474.334577 39.154708)">3.778</text>
   </g>
   <g id="text_41">
    <!-- root $\Phi=4.23$; retained residual $=0.45$ bits -->
    <g style="fill: #4b5560" transform="translate(377.910418 16.368544)">
     <text>
      <tspan x="0" y="-0.546875" style="font-size: 5.7px; font-family: 'Arial'; fill: #4b5560">r</tspan>
      <tspan x="1.914795" y="-0.546875" style="font-size: 5.7px; font-family: 'Arial'; fill: #4b5560">o</tspan>
      <tspan x="5.112671" y="-0.546875" style="font-size: 5.7px; font-family: 'Arial'; fill: #4b5560">o</tspan>
      <tspan x="8.310547" y="-0.546875" style="font-size: 5.7px; font-family: 'Arial'; fill: #4b5560">t</tspan>
      <tspan x="9.908081" y="-0.546875" style="font-size: 5.7px; font-family: 'Arial'; fill: #4b5560"> </tspan>
      <tspan x="35.517578" y="-0.546875" style="font-size: 5.7px; font-family: 'Arial'; fill: #4b5560">;</tspan>
      <tspan x="37.115112" y="-0.546875" style="font-size: 5.7px; font-family: 'Arial'; fill: #4b5560"> </tspan>
      <tspan x="38.712646" y="-0.546875" style="font-size: 5.7px; font-family: 'Arial'; fill: #4b5560">r</tspan>
      <tspan x="40.627441" y="-0.546875" style="font-size: 5.7px; font-family: 'Arial'; fill: #4b5560">e</tspan>
      <tspan x="43.825317" y="-0.546875" style="font-size: 5.7px; font-family: 'Arial'; fill: #4b5560">t</tspan>
      <tspan x="45.422852" y="-0.546875" style="font-size: 5.7px; font-family: 'Arial'; fill: #4b5560">a</tspan>
      <tspan x="48.620728" y="-0.546875" style="font-size: 5.7px; font-family: 'Arial'; fill: #4b5560">i</tspan>
      <tspan x="49.898193" y="-0.546875" style="font-size: 5.7px; font-family: 'Arial'; fill: #4b5560">n</tspan>
      <tspan x="53.096069" y="-0.546875" style="font-size: 5.7px; font-family: 'Arial'; fill: #4b5560">e</tspan>
      <tspan x="56.293945" y="-0.546875" style="font-size: 5.7px; font-family: 'Arial'; fill: #4b5560">d</tspan>
      <tspan x="59.491821" y="-0.546875" style="font-size: 5.7px; font-family: 'Arial'; fill: #4b5560"> </tspan>
      <tspan x="61.089355" y="-0.546875" style="font-size: 5.7px; font-family: 'Arial'; fill: #4b5560">r</tspan>
      <tspan x="63.00415" y="-0.546875" style="font-size: 5.7px; font-family: 'Arial'; fill: #4b5560">e</tspan>
      <tspan x="66.202026" y="-0.546875" style="font-size: 5.7px; font-family: 'Arial'; fill: #4b5560">s</tspan>
      <tspan x="69.077026" y="-0.546875" style="font-size: 5.7px; font-family: 'Arial'; fill: #4b5560">i</tspan>
      <tspan x="70.354492" y="-0.546875" style="font-size: 5.7px; font-family: 'Arial'; fill: #4b5560">d</tspan>
      <tspan x="73.552368" y="-0.546875" style="font-size: 5.7px; font-family: 'Arial'; fill: #4b5560">u</tspan>
      <tspan x="76.750244" y="-0.546875" style="font-size: 5.7px; font-family: 'Arial'; fill: #4b5560">a</tspan>
      <tspan x="79.94812" y="-0.546875" style="font-size: 5.7px; font-family: 'Arial'; fill: #4b5560">l</tspan>
      <tspan x="81.225586" y="-0.546875" style="font-size: 5.7px; font-family: 'Arial'; fill: #4b5560"> </tspan>
      <tspan x="102.684204" y="-0.546875" style="font-size: 5.7px; font-family: 'Arial'; fill: #4b5560"> </tspan>
      <tspan x="104.281738" y="-0.546875" style="font-size: 5.7px; font-family: 'Arial'; fill: #4b5560">b</tspan>
      <tspan x="107.479614" y="-0.546875" style="font-size: 5.7px; font-family: 'Arial'; fill: #4b5560">i</tspan>
      <tspan x="108.75708" y="-0.546875" style="font-size: 5.7px; font-family: 'Arial'; fill: #4b5560">t</tspan>
      <tspan x="110.354614" y="-0.546875" style="font-size: 5.7px; font-family: 'Arial'; fill: #4b5560">s</tspan>
      <tspan x="11.505615" y="-0.546875" style="font-size: 5.7px; font-family: 'DejaVu Sans'; fill: #4b5560">Φ</tspan>
      <tspan x="17.151733" y="-0.546875" style="font-size: 5.7px; font-family: 'DejaVu Sans'; fill: #4b5560">=</tspan>
      <tspan x="23.089844" y="-0.546875" style="font-size: 5.7px; font-family: 'DejaVu Sans'; fill: #4b5560">4</tspan>
      <tspan x="26.748169" y="-0.546875" style="font-size: 5.7px; font-family: 'DejaVu Sans'; fill: #4b5560">.</tspan>
      <tspan x="28.200928" y="-0.546875" style="font-size: 5.7px; font-family: 'DejaVu Sans'; fill: #4b5560">2</tspan>
      <tspan x="31.859253" y="-0.546875" style="font-size: 5.7px; font-family: 'DejaVu Sans'; fill: #4b5560">3</tspan>
      <tspan x="83.943359" y="-0.546875" style="font-size: 5.7px; font-family: 'DejaVu Sans'; fill: #4b5560">=</tspan>
      <tspan x="89.88147" y="-0.546875" style="font-size: 5.7px; font-family: 'DejaVu Sans'; fill: #4b5560">0</tspan>
      <tspan x="93.539795" y="-0.546875" style="font-size: 5.7px; font-family: 'DejaVu Sans'; fill: #4b5560">.</tspan>
      <tspan x="95.367554" y="-0.546875" style="font-size: 5.7px; font-family: 'DejaVu Sans'; fill: #4b5560">4</tspan>
      <tspan x="99.025879" y="-0.546875" style="font-size: 5.7px; font-family: 'DejaVu Sans'; fill: #4b5560">5</tspan>
     </text>
    </g>
   </g>
   <g id="text_42">
    <text style="font-weight: 700; font-size: 8px; font-family: 'Arial', 'Helvetica', 'DejaVu Sans', sans-serif; text-anchor: start" x="192.280709" y="12.92625" transform="rotate(-0 192.280709 12.92625)">b</text>
   </g>
  </g>
  <g id="axes_4">
   <g id="patch_23">
    <path d="M 242.91038 221.546567
L 265.588253 221.546567
Q 280.091544 221.546567 280.091544 220.695084
L 280.091544 214.099966
Q 280.091544 213.248484 265.588253 213.248484
L 242.91038 213.248484
Q 228.407089 213.248484 228.407089 214.099966
L 228.407089 220.695084
Q 228.407089 221.546567 242.91038 221.546567
z
" clip-path="url(#pf67d412944)" style="fill: #3e73a8; fill-opacity: 0.13; stroke: #3e73a8; stroke-linejoin: miter"/>
   </g>
   <g id="text_43">
    <!-- $\{12\}$ -->
    <g style="fill: #3e73a8" transform="translate(246.599316 219.003463)">
     <text>
      <tspan x="0" y="-0.4375" style="font-size: 6px; font-family: 'DejaVu Sans'; fill: #3e73a8">{</tspan>
      <tspan x="3.817383" y="-0.4375" style="font-size: 6px; font-family: 'DejaVu Sans'; fill: #3e73a8">1</tspan>
      <tspan x="7.634766" y="-0.4375" style="font-size: 6px; font-family: 'DejaVu Sans'; fill: #3e73a8">2</tspan>
      <tspan x="11.452148" y="-0.4375" style="font-size: 6px; font-family: 'DejaVu Sans'; fill: #3e73a8">}</tspan>
     </text>
    </g>
   </g>
   <g id="text_44">
    <!-- $\longrightarrow$ -->
    <g style="fill: #3e73a8" transform="translate(277.399899 219.052025)">
     <text>
      <tspan x="1.242004" y="-0.828125" style="font-size: 6.4px; font-family: 'DejaVu Sans'; fill: #3e73a8">⟶</tspan>
     </text>
    </g>
   </g>
   <g id="text_45">
    <!-- $\Xi_{\{12\}}=1.830\ \mathrm{bits}$ -->
    <g style="fill: #4b5560" transform="translate(296.440709 218.861525)">
     <text>
      <tspan x="0" y="-0.4375" style="font-size: 6.1px; font-family: 'DejaVu Sans'; fill: #4b5560">Ξ</tspan>
      <tspan x="16.19613" y="-0.4375" style="font-size: 6.1px; font-family: 'DejaVu Sans'; fill: #4b5560">=</tspan>
      <tspan x="22.521509" y="-0.4375" style="font-size: 6.1px; font-family: 'DejaVu Sans'; fill: #4b5560">1</tspan>
      <tspan x="26.41842" y="-0.4375" style="font-size: 6.1px; font-family: 'DejaVu Sans'; fill: #4b5560">.</tspan>
      <tspan x="28.240381" y="-0.4375" style="font-size: 6.1px; font-family: 'DejaVu Sans'; fill: #4b5560">8</tspan>
      <tspan x="32.137292" y="-0.4375" style="font-size: 6.1px; font-family: 'DejaVu Sans'; fill: #4b5560">3</tspan>
      <tspan x="36.034204" y="-0.4375" style="font-size: 6.1px; font-family: 'DejaVu Sans'; fill: #4b5560">0</tspan>
      <tspan x="41.919926" y="-0.4375" style="font-size: 6.1px; font-family: 'DejaVu Sans'; fill: #4b5560">b</tspan>
      <tspan x="45.807866" y="-0.4375" style="font-size: 6.1px; font-family: 'DejaVu Sans'; fill: #4b5560">i</tspan>
      <tspan x="47.509587" y="-0.4375" style="font-size: 6.1px; font-family: 'DejaVu Sans'; fill: #4b5560">t</tspan>
      <tspan x="49.911137" y="-0.4375" style="font-size: 6.1px; font-family: 'DejaVu Sans'; fill: #4b5560">s</tspan>
      <tspan x="3.927417" y="0.546875" style="font-size: 4.27px; font-family: 'DejaVu Sans'; fill: #4b5560">{</tspan>
      <tspan x="6.655255" y="0.546875" style="font-size: 4.27px; font-family: 'DejaVu Sans'; fill: #4b5560">1</tspan>
      <tspan x="9.383093" y="0.546875" style="font-size: 4.27px; font-family: 'DejaVu Sans'; fill: #4b5560">2</tspan>
      <tspan x="12.110931" y="0.546875" style="font-size: 4.27px; font-family: 'DejaVu Sans'; fill: #4b5560">}</tspan>
     </text>
    </g>
   </g>
   <g id="text_46">
    <text style="font-size: 5.7px; font-family: 'Arial', 'Helvetica', 'DejaVu Sans', sans-serif; text-anchor: start; fill: #3e73a8" x="233.15362" y="208.988346" transform="rotate(-0 233.15362 208.988346)">terminal two-node atom</text>
   </g>
  </g>
  <g id="axes_5">
   <g id="patch_24">
    <path d="M 229.198177 294.650201
L 492.89438 294.650201
L 492.89438 252.700335
L 229.198177 252.700335
z
" style="fill: #ffffff"/>
   </g>
   <g id="line2d_50">
    <path d="M 235.629792 294.650201
L 235.629792 252.700335
" clip-path="url(#p56c06fed26)" style="fill: none; stroke: #e9edf0; stroke-width: 0.7; stroke-linecap: square"/>
   </g>
   <g id="matplotlib.axis_5">
    <g id="xtick_17">
     <g id="line2d_51">
      <g>
       <use xlink:href="#ma6e0caf999" x="235.629792" y="294.650201" style="stroke: #000000; stroke-width: 0.8"/>
      </g>
     </g>
     <g id="text_47">
      <text style="font-size: 7px; font-family: 'Arial', 'Helvetica', 'DejaVu Sans', sans-serif; text-anchor: middle" x="235.629792" y="306.66067" transform="rotate(-0 235.629792 306.66067)">0.0</text>
     </g>
    </g>
    <g id="xtick_18">
     <g id="line2d_52">
      <g>
       <use xlink:href="#ma6e0caf999" x="266.029834" y="294.650201" style="stroke: #000000; stroke-width: 0.8"/>
      </g>
     </g>
     <g id="text_48">
      <text style="font-size: 7px; font-family: 'Arial', 'Helvetica', 'DejaVu Sans', sans-serif; text-anchor: middle" x="266.029834" y="306.66067" transform="rotate(-0 266.029834 306.66067)">0.5</text>
     </g>
    </g>
    <g id="xtick_19">
     <g id="line2d_53">
      <g>
       <use xlink:href="#ma6e0caf999" x="296.429876" y="294.650201" style="stroke: #000000; stroke-width: 0.8"/>
      </g>
     </g>
     <g id="text_49">
      <text style="font-size: 7px; font-family: 'Arial', 'Helvetica', 'DejaVu Sans', sans-serif; text-anchor: middle" x="296.429876" y="306.66067" transform="rotate(-0 296.429876 306.66067)">1.0</text>
     </g>
    </g>
    <g id="xtick_20">
     <g id="line2d_54">
      <g>
       <use xlink:href="#ma6e0caf999" x="326.829918" y="294.650201" style="stroke: #000000; stroke-width: 0.8"/>
      </g>
     </g>
     <g id="text_50">
      <text style="font-size: 7px; font-family: 'Arial', 'Helvetica', 'DejaVu Sans', sans-serif; text-anchor: middle" x="326.829918" y="306.66067" transform="rotate(-0 326.829918 306.66067)">1.5</text>
     </g>
    </g>
    <g id="xtick_21">
     <g id="line2d_55">
      <g>
       <use xlink:href="#ma6e0caf999" x="357.22996" y="294.650201" style="stroke: #000000; stroke-width: 0.8"/>
      </g>
     </g>
     <g id="text_51">
      <text style="font-size: 7px; font-family: 'Arial', 'Helvetica', 'DejaVu Sans', sans-serif; text-anchor: middle" x="357.22996" y="306.66067" transform="rotate(-0 357.22996 306.66067)">2.0</text>
     </g>
    </g>
    <g id="xtick_22">
     <g id="line2d_56">
      <g>
       <use xlink:href="#ma6e0caf999" x="387.630002" y="294.650201" style="stroke: #000000; stroke-width: 0.8"/>
      </g>
     </g>
     <g id="text_52">
      <text style="font-size: 7px; font-family: 'Arial', 'Helvetica', 'DejaVu Sans', sans-serif; text-anchor: middle" x="387.630002" y="306.66067" transform="rotate(-0 387.630002 306.66067)">2.5</text>
     </g>
    </g>
    <g id="xtick_23">
     <g id="line2d_57">
      <g>
       <use xlink:href="#ma6e0caf999" x="418.030044" y="294.650201" style="stroke: #000000; stroke-width: 0.8"/>
      </g>
     </g>
     <g id="text_53">
      <text style="font-size: 7px; font-family: 'Arial', 'Helvetica', 'DejaVu Sans', sans-serif; text-anchor: middle" x="418.030044" y="306.66067" transform="rotate(-0 418.030044 306.66067)">3.0</text>
     </g>
    </g>
    <g id="xtick_24">
     <g id="line2d_58">
      <g>
       <use xlink:href="#ma6e0caf999" x="448.430086" y="294.650201" style="stroke: #000000; stroke-width: 0.8"/>
      </g>
     </g>
     <g id="text_54">
      <text style="font-size: 7px; font-family: 'Arial', 'Helvetica', 'DejaVu Sans', sans-serif; text-anchor: middle" x="448.430086" y="306.66067" transform="rotate(-0 448.430086 306.66067)">3.5</text>
     </g>
    </g>
    <g id="xtick_25">
     <g id="line2d_59">
      <g>
       <use xlink:href="#ma6e0caf999" x="478.830128" y="294.650201" style="stroke: #000000; stroke-width: 0.8"/>
      </g>
     </g>
     <g id="text_55">
      <text style="font-size: 7px; font-family: 'Arial', 'Helvetica', 'DejaVu Sans', sans-serif; text-anchor: middle" x="478.830128" y="306.66067" transform="rotate(-0 478.830128 306.66067)">4.0</text>
     </g>
    </g>
    <g id="text_56">
     <!-- Greedy capture, $C(L,R)=\Phi(L)+\Phi(R)$ (bits) -->
     <g transform="translate(290.906278 317.37192)">
      <text>
       <tspan x="0" y="-0.6875" style="font-size: 7px; font-family: 'Arial'">G</tspan>
       <tspan x="5.444824" y="-0.6875" style="font-size: 7px; font-family: 'Arial'">r</tspan>
       <tspan x="7.775879" y="-0.6875" style="font-size: 7px; font-family: 'Arial'">e</tspan>
       <tspan x="11.668945" y="-0.6875" style="font-size: 7px; font-family: 'Arial'">e</tspan>
       <tspan x="15.562012" y="-0.6875" style="font-size: 7px; font-family: 'Arial'">d</tspan>
       <tspan x="19.455078" y="-0.6875" style="font-size: 7px; font-family: 'Arial'">y</tspan>
       <tspan x="22.955078" y="-0.6875" style="font-size: 7px; font-family: 'Arial'"> </tspan>
       <tspan x="24.899902" y="-0.6875" style="font-size: 7px; font-family: 'Arial'">c</tspan>
       <tspan x="28.399902" y="-0.6875" style="font-size: 7px; font-family: 'Arial'">a</tspan>
       <tspan x="32.292969" y="-0.6875" style="font-size: 7px; font-family: 'Arial'">p</tspan>
       <tspan x="36.186035" y="-0.6875" style="font-size: 7px; font-family: 'Arial'">t</tspan>
       <tspan x="38.130859" y="-0.6875" style="font-size: 7px; font-family: 'Arial'">u</tspan>
       <tspan x="42.023926" y="-0.6875" style="font-size: 7px; font-family: 'Arial'">r</tspan>
       <tspan x="44.35498" y="-0.6875" style="font-size: 7px; font-family: 'Arial'">e</tspan>
       <tspan x="48.248047" y="-0.6875" style="font-size: 7px; font-family: 'Arial'">,</tspan>
       <tspan x="50.192871" y="-0.6875" style="font-size: 7px; font-family: 'Arial'"> </tspan>
       <tspan x="122.732422" y="-0.6875" style="font-size: 7px; font-family: 'Arial'"> </tspan>
       <tspan x="124.677246" y="-0.6875" style="font-size: 7px; font-family: 'Arial'">(</tspan>
       <tspan x="127.008301" y="-0.6875" style="font-size: 7px; font-family: 'Arial'">b</tspan>
       <tspan x="130.901367" y="-0.6875" style="font-size: 7px; font-family: 'Arial'">i</tspan>
       <tspan x="132.456543" y="-0.6875" style="font-size: 7px; font-family: 'Arial'">t</tspan>
       <tspan x="134.401367" y="-0.6875" style="font-size: 7px; font-family: 'Arial'">s</tspan>
       <tspan x="137.901367" y="-0.6875" style="font-size: 7px; font-family: 'Arial'">)</tspan>
       <tspan x="52.137695" y="-0.6875" style="font-style: oblique; font-size: 7px; font-family: 'DejaVu Sans'">C</tspan>
       <tspan x="59.756348" y="-0.6875" style="font-style: oblique; font-size: 7px; font-family: 'DejaVu Sans'">L</tspan>
       <tspan x="67.245117" y="-0.6875" style="font-style: oblique; font-size: 7px; font-family: 'DejaVu Sans'">R</tspan>
       <tspan x="91.67334" y="-0.6875" style="font-style: oblique; font-size: 7px; font-family: 'DejaVu Sans'">L</tspan>
       <tspan x="115.137695" y="-0.6875" style="font-style: oblique; font-size: 7px; font-family: 'DejaVu Sans'">R</tspan>
       <tspan x="57.025391" y="-0.6875" style="font-size: 7px; font-family: 'DejaVu Sans'">(</tspan>
       <tspan x="63.65625" y="-0.6875" style="font-size: 7px; font-family: 'DejaVu Sans'">,</tspan>
       <tspan x="72.108887" y="-0.6875" style="font-size: 7px; font-family: 'DejaVu Sans'">)</tspan>
       <tspan x="76.203613" y="-0.6875" style="font-size: 7px; font-family: 'DejaVu Sans'">=</tspan>
       <tspan x="83.432617" y="-0.6875" style="font-size: 7px; font-family: 'DejaVu Sans'">Φ</tspan>
       <tspan x="88.942383" y="-0.6875" style="font-size: 7px; font-family: 'DejaVu Sans'">(</tspan>
       <tspan x="95.573242" y="-0.6875" style="font-size: 7px; font-family: 'DejaVu Sans'">)</tspan>
       <tspan x="99.667969" y="-0.6875" style="font-size: 7px; font-family: 'DejaVu Sans'">+</tspan>
       <tspan x="106.896973" y="-0.6875" style="font-size: 7px; font-family: 'DejaVu Sans'">Φ</tspan>
       <tspan x="112.406738" y="-0.6875" style="font-size: 7px; font-family: 'DejaVu Sans'">(</tspan>
       <tspan x="120.001465" y="-0.6875" style="font-size: 7px; font-family: 'DejaVu Sans'">)</tspan>
      </text>
     </g>
    </g>
   </g>
   <g id="matplotlib.axis_6">
    <g id="ytick_21">
     <g id="line2d_60"/>
     <g id="text_57">
      <text style="font-size: 5.2px; font-family: 'Arial', 'Helvetica', 'DejaVu Sans', sans-serif; text-anchor: end" x="226.198177" y="264.780878" transform="rotate(-0 226.198177 264.780878)">{3}|{45}</text>
     </g>
    </g>
    <g id="ytick_22">
     <g id="line2d_61"/>
     <g id="text_58">
      <text style="font-size: 5.2px; font-family: 'Arial', 'Helvetica', 'DejaVu Sans', sans-serif; text-anchor: end" x="226.198177" y="276.766554" transform="rotate(-0 226.198177 276.766554)">{34}|{5}</text>
     </g>
    </g>
    <g id="ytick_23">
     <g id="line2d_62"/>
     <g id="text_59">
      <text style="font-size: 5.2px; font-family: 'Arial', 'Helvetica', 'DejaVu Sans', sans-serif; text-anchor: end" x="226.198177" y="288.75223" transform="rotate(-0 226.198177 288.75223)">{35}|{4}</text>
     </g>
    </g>
   </g>
   <g id="patch_25">
    <path d="M 235.629792 265.764722
L 260.55433 265.764722
L 260.55433 260.011597
L 235.629792 260.011597
z
" clip-path="url(#p56c06fed26)" style="fill: #315f8c"/>
   </g>
   <g id="patch_26">
    <path d="M 235.629792 277.750398
L 248.932218 277.750398
L 248.932218 271.997273
L 235.629792 271.997273
z
" clip-path="url(#p56c06fed26)" style="fill: #aeb6be"/>
   </g>
   <g id="patch_27">
    <path d="M 235.629792 289.736074
L 247.733216 289.736074
L 247.733216 283.982949
L 235.629792 283.982949
z
" clip-path="url(#p56c06fed26)" style="fill: #aeb6be"/>
   </g>
   <g id="patch_28">
    <path d="M 229.198177 294.650201
L 492.89438 294.650201
" style="fill: none; stroke: #000000; stroke-width: 0.8; stroke-linejoin: miter; stroke-linecap: square"/>
   </g>
   <g id="PathCollection_7">
    <path d="M 260.55433 265.38816
C 261.217337 265.38816 261.853279 265.124744 262.322097 264.655927
C 262.790914 264.187109 263.05433 263.551167 263.05433 262.88816
C 263.05433 262.225152 262.790914 261.58921 262.322097 261.120393
C 261.853279 260.651575 261.217337 260.38816 260.55433 260.38816
C 259.891322 260.38816 259.25538 260.651575 258.786563 261.120393
C 258.317745 261.58921 258.05433 262.225152 258.05433 262.88816
C 258.05433 263.551167 258.317745 264.187109 258.786563 264.655927
C 259.25538 265.124744 259.891322 265.38816 260.55433 265.38816
z
" clip-path="url(#p56c06fed26)" style="fill: #315f8c; stroke: #ffffff; stroke-width: 0.35"/>
    <path d="M 248.932218 276.454975
C 249.351541 276.454975 249.753746 276.288376 250.050252 275.99187
C 250.346759 275.695364 250.513357 275.293159 250.513357 274.873836
C 250.513357 274.454513 250.346759 274.052308 250.050252 273.755802
C 249.753746 273.459296 249.351541 273.292697 248.932218 273.292697
C 248.512896 273.292697 248.110691 273.459296 247.814184 273.755802
C 247.517678 274.052308 247.35108 274.454513 247.35108 274.873836
C 247.35108 275.293159 247.517678 275.695364 247.814184 275.99187
C 248.110691 276.288376 248.512896 276.454975 248.932218 276.454975
z
" clip-path="url(#p56c06fed26)" style="fill: #aeb6be; stroke: #ffffff; stroke-width: 0.35"/>
    <path d="M 247.733216 288.440651
C 248.152539 288.440651 248.554744 288.274052 248.85125 287.977546
C 249.147756 287.68104 249.314355 287.278835 249.314355 286.859512
C 249.314355 286.440189 249.147756 286.037984 248.85125 285.741478
C 248.554744 285.444972 248.152539 285.278373 247.733216 285.278373
C 247.313893 285.278373 246.911688 285.444972 246.615182 285.741478
C 246.318676 286.037984 246.152077 286.440189 246.152077 286.859512
C 246.152077 287.278835 246.318676 287.68104 246.615182 287.977546
C 246.911688 288.274052 247.313893 288.440651 247.733216 288.440651
z
" clip-path="url(#p56c06fed26)" style="fill: #aeb6be; stroke: #ffffff; stroke-width: 0.35"/>
   </g>
   <g id="text_60">
    <!-- Recurse on $\{3,4,5\}$ -->
    <g style="fill: #d28a35" transform="translate(229.198177 248.120814)">
     <text>
      <tspan x="0" y="-0.4375" style="font-weight: 700; font-size: 6.2px; font-family: 'Arial'; fill: #d28a35">R</tspan>
      <tspan x="4.51355" y="-0.4375" style="font-weight: 700; font-size: 6.2px; font-family: 'Arial'; fill: #d28a35">e</tspan>
      <tspan x="7.989502" y="-0.4375" style="font-weight: 700; font-size: 6.2px; font-family: 'Arial'; fill: #d28a35">c</tspan>
      <tspan x="11.465454" y="-0.4375" style="font-weight: 700; font-size: 6.2px; font-family: 'Arial'; fill: #d28a35">u</tspan>
      <tspan x="15.283203" y="-0.4375" style="font-weight: 700; font-size: 6.2px; font-family: 'Arial'; fill: #d28a35">r</tspan>
      <tspan x="17.715454" y="-0.4375" style="font-weight: 700; font-size: 6.2px; font-family: 'Arial'; fill: #d28a35">s</tspan>
      <tspan x="21.191406" y="-0.4375" style="font-weight: 700; font-size: 6.2px; font-family: 'Arial'; fill: #d28a35">e</tspan>
      <tspan x="24.667358" y="-0.4375" style="font-weight: 700; font-size: 6.2px; font-family: 'Arial'; fill: #d28a35"> </tspan>
      <tspan x="26.403809" y="-0.4375" style="font-weight: 700; font-size: 6.2px; font-family: 'Arial'; fill: #d28a35">o</tspan>
      <tspan x="30.221558" y="-0.4375" style="font-weight: 700; font-size: 6.2px; font-family: 'Arial'; fill: #d28a35">n</tspan>
      <tspan x="34.039307" y="-0.4375" style="font-weight: 700; font-size: 6.2px; font-family: 'Arial'; fill: #d28a35"> </tspan>
      <tspan x="35.775757" y="-0.4375" style="font-size: 6.2px; font-family: 'DejaVu Sans'; fill: #d28a35">{</tspan>
      <tspan x="39.752197" y="-0.4375" style="font-size: 6.2px; font-family: 'DejaVu Sans'; fill: #d28a35">3</tspan>
      <tspan x="43.728638" y="-0.4375" style="font-size: 6.2px; font-family: 'DejaVu Sans'; fill: #d28a35">,</tspan>
      <tspan x="46.932983" y="-0.4375" style="font-size: 6.2px; font-family: 'DejaVu Sans'; fill: #d28a35">4</tspan>
      <tspan x="50.909424" y="-0.4375" style="font-size: 6.2px; font-family: 'DejaVu Sans'; fill: #d28a35">,</tspan>
      <tspan x="54.11377" y="-0.4375" style="font-size: 6.2px; font-family: 'DejaVu Sans'; fill: #d28a35">5</tspan>
      <tspan x="57.96521" y="-0.4375" style="font-size: 6.2px; font-family: 'DejaVu Sans'; fill: #d28a35">}</tspan>
     </text>
    </g>
   </g>
   <g id="text_61">
    <text style="font-weight: 700; font-size: 5.6px; font-family: 'Arial', 'Helvetica', 'DejaVu Sans', sans-serif; text-anchor: start; fill: #315f8c" x="269.55859" y="264.339785" transform="rotate(-0 269.55859 264.339785)">0.410</text>
   </g>
   <g id="text_62">
    <!-- root $\Phi=1.95$; retained residual $=1.54$ bits -->
    <g style="fill: #4b5560" transform="translate(377.625418 248.211471)">
     <text>
      <tspan x="0" y="-0.546875" style="font-size: 5.7px; font-family: 'Arial'; fill: #4b5560">r</tspan>
      <tspan x="1.914795" y="-0.546875" style="font-size: 5.7px; font-family: 'Arial'; fill: #4b5560">o</tspan>
      <tspan x="5.112671" y="-0.546875" style="font-size: 5.7px; font-family: 'Arial'; fill: #4b5560">o</tspan>
      <tspan x="8.310547" y="-0.546875" style="font-size: 5.7px; font-family: 'Arial'; fill: #4b5560">t</tspan>
      <tspan x="9.908081" y="-0.546875" style="font-size: 5.7px; font-family: 'Arial'; fill: #4b5560"> </tspan>
      <tspan x="35.892578" y="-0.546875" style="font-size: 5.7px; font-family: 'Arial'; fill: #4b5560">;</tspan>
      <tspan x="37.490112" y="-0.546875" style="font-size: 5.7px; font-family: 'Arial'; fill: #4b5560"> </tspan>
      <tspan x="39.087646" y="-0.546875" style="font-size: 5.7px; font-family: 'Arial'; fill: #4b5560">r</tspan>
      <tspan x="41.002441" y="-0.546875" style="font-size: 5.7px; font-family: 'Arial'; fill: #4b5560">e</tspan>
      <tspan x="44.200317" y="-0.546875" style="font-size: 5.7px; font-family: 'Arial'; fill: #4b5560">t</tspan>
      <tspan x="45.797852" y="-0.546875" style="font-size: 5.7px; font-family: 'Arial'; fill: #4b5560">a</tspan>
      <tspan x="48.995728" y="-0.546875" style="font-size: 5.7px; font-family: 'Arial'; fill: #4b5560">i</tspan>
      <tspan x="50.273193" y="-0.546875" style="font-size: 5.7px; font-family: 'Arial'; fill: #4b5560">n</tspan>
      <tspan x="53.471069" y="-0.546875" style="font-size: 5.7px; font-family: 'Arial'; fill: #4b5560">e</tspan>
      <tspan x="56.668945" y="-0.546875" style="font-size: 5.7px; font-family: 'Arial'; fill: #4b5560">d</tspan>
      <tspan x="59.866821" y="-0.546875" style="font-size: 5.7px; font-family: 'Arial'; fill: #4b5560"> </tspan>
      <tspan x="61.464355" y="-0.546875" style="font-size: 5.7px; font-family: 'Arial'; fill: #4b5560">r</tspan>
      <tspan x="63.37915" y="-0.546875" style="font-size: 5.7px; font-family: 'Arial'; fill: #4b5560">e</tspan>
      <tspan x="66.577026" y="-0.546875" style="font-size: 5.7px; font-family: 'Arial'; fill: #4b5560">s</tspan>
      <tspan x="69.452026" y="-0.546875" style="font-size: 5.7px; font-family: 'Arial'; fill: #4b5560">i</tspan>
      <tspan x="70.729492" y="-0.546875" style="font-size: 5.7px; font-family: 'Arial'; fill: #4b5560">d</tspan>
      <tspan x="73.927368" y="-0.546875" style="font-size: 5.7px; font-family: 'Arial'; fill: #4b5560">u</tspan>
      <tspan x="77.125244" y="-0.546875" style="font-size: 5.7px; font-family: 'Arial'; fill: #4b5560">a</tspan>
      <tspan x="80.32312" y="-0.546875" style="font-size: 5.7px; font-family: 'Arial'; fill: #4b5560">l</tspan>
      <tspan x="81.600586" y="-0.546875" style="font-size: 5.7px; font-family: 'Arial'; fill: #4b5560"> </tspan>
      <tspan x="103.059204" y="-0.546875" style="font-size: 5.7px; font-family: 'Arial'; fill: #4b5560"> </tspan>
      <tspan x="104.656738" y="-0.546875" style="font-size: 5.7px; font-family: 'Arial'; fill: #4b5560">b</tspan>
      <tspan x="107.854614" y="-0.546875" style="font-size: 5.7px; font-family: 'Arial'; fill: #4b5560">i</tspan>
      <tspan x="109.13208" y="-0.546875" style="font-size: 5.7px; font-family: 'Arial'; fill: #4b5560">t</tspan>
      <tspan x="110.729614" y="-0.546875" style="font-size: 5.7px; font-family: 'Arial'; fill: #4b5560">s</tspan>
      <tspan x="11.505615" y="-0.546875" style="font-size: 5.7px; font-family: 'DejaVu Sans'; fill: #4b5560">Φ</tspan>
      <tspan x="17.151733" y="-0.546875" style="font-size: 5.7px; font-family: 'DejaVu Sans'; fill: #4b5560">=</tspan>
      <tspan x="23.089844" y="-0.546875" style="font-size: 5.7px; font-family: 'DejaVu Sans'; fill: #4b5560">1</tspan>
      <tspan x="26.748169" y="-0.546875" style="font-size: 5.7px; font-family: 'DejaVu Sans'; fill: #4b5560">.</tspan>
      <tspan x="28.575928" y="-0.546875" style="font-size: 5.7px; font-family: 'DejaVu Sans'; fill: #4b5560">9</tspan>
      <tspan x="32.234253" y="-0.546875" style="font-size: 5.7px; font-family: 'DejaVu Sans'; fill: #4b5560">5</tspan>
      <tspan x="84.318359" y="-0.546875" style="font-size: 5.7px; font-family: 'DejaVu Sans'; fill: #4b5560">=</tspan>
      <tspan x="90.25647" y="-0.546875" style="font-size: 5.7px; font-family: 'DejaVu Sans'; fill: #4b5560">1</tspan>
      <tspan x="93.914795" y="-0.546875" style="font-size: 5.7px; font-family: 'DejaVu Sans'; fill: #4b5560">.</tspan>
      <tspan x="95.742554" y="-0.546875" style="font-size: 5.7px; font-family: 'DejaVu Sans'; fill: #4b5560">5</tspan>
      <tspan x="99.400879" y="-0.546875" style="font-size: 5.7px; font-family: 'DejaVu Sans'; fill: #4b5560">4</tspan>
     </text>
    </g>
   </g>
  </g>
  <g id="axes_6">
   <g id="patch_29">
    <path d="M 242.91038 336.888722
L 265.588253 336.888722
Q 280.091544 336.888722 280.091544 336.03724
L 280.091544 329.442122
Q 280.091544 328.590639 265.588253 328.590639
L 242.91038 328.590639
Q 228.407089 328.590639 228.407089 329.442122
L 228.407089 336.03724
Q 228.407089 336.888722 242.91038 336.888722
z
" clip-path="url(#pe2ce80a8b5)" style="fill: #d28a35; fill-opacity: 0.13; stroke: #d28a35; stroke-linejoin: miter"/>
   </g>
   <g id="text_63">
    <!-- $\{45\}$ -->
    <g style="fill: #d28a35" transform="translate(246.659316 334.345618)">
     <text>
      <tspan x="0" y="-0.4375" style="font-size: 6px; font-family: 'DejaVu Sans'; fill: #d28a35">{</tspan>
      <tspan x="3.817383" y="-0.4375" style="font-size: 6px; font-family: 'DejaVu Sans'; fill: #d28a35">4</tspan>
      <tspan x="7.634766" y="-0.4375" style="font-size: 6px; font-family: 'DejaVu Sans'; fill: #d28a35">5</tspan>
      <tspan x="11.327148" y="-0.4375" style="font-size: 6px; font-family: 'DejaVu Sans'; fill: #d28a35">}</tspan>
     </text>
    </g>
   </g>
   <g id="text_64">
    <!-- $\longrightarrow$ -->
    <g style="fill: #d28a35" transform="translate(277.399899 334.394181)">
     <text>
      <tspan x="1.242004" y="-0.828125" style="font-size: 6.4px; font-family: 'DejaVu Sans'; fill: #d28a35">⟶</tspan>
     </text>
    </g>
   </g>
   <g id="text_65">
    <!-- $\Xi_{\{45\}}=0.410\ \mathrm{bits}$ -->
    <g style="fill: #4b5560" transform="translate(296.440709 334.203681)">
     <text>
      <tspan x="0" y="-0.4375" style="font-size: 6.1px; font-family: 'DejaVu Sans'; fill: #4b5560">Ξ</tspan>
      <tspan x="16.10863" y="-0.4375" style="font-size: 6.1px; font-family: 'DejaVu Sans'; fill: #4b5560">=</tspan>
      <tspan x="22.434009" y="-0.4375" style="font-size: 6.1px; font-family: 'DejaVu Sans'; fill: #4b5560">0</tspan>
      <tspan x="26.33092" y="-0.4375" style="font-size: 6.1px; font-family: 'DejaVu Sans'; fill: #4b5560">.</tspan>
      <tspan x="28.277881" y="-0.4375" style="font-size: 6.1px; font-family: 'DejaVu Sans'; fill: #4b5560">4</tspan>
      <tspan x="32.174792" y="-0.4375" style="font-size: 6.1px; font-family: 'DejaVu Sans'; fill: #4b5560">1</tspan>
      <tspan x="36.071704" y="-0.4375" style="font-size: 6.1px; font-family: 'DejaVu Sans'; fill: #4b5560">0</tspan>
      <tspan x="41.957426" y="-0.4375" style="font-size: 6.1px; font-family: 'DejaVu Sans'; fill: #4b5560">b</tspan>
      <tspan x="45.845366" y="-0.4375" style="font-size: 6.1px; font-family: 'DejaVu Sans'; fill: #4b5560">i</tspan>
      <tspan x="47.547087" y="-0.4375" style="font-size: 6.1px; font-family: 'DejaVu Sans'; fill: #4b5560">t</tspan>
      <tspan x="49.948637" y="-0.4375" style="font-size: 6.1px; font-family: 'DejaVu Sans'; fill: #4b5560">s</tspan>
      <tspan x="3.927417" y="0.546875" style="font-size: 4.27px; font-family: 'DejaVu Sans'; fill: #4b5560">{</tspan>
      <tspan x="6.655255" y="0.546875" style="font-size: 4.27px; font-family: 'DejaVu Sans'; fill: #4b5560">4</tspan>
      <tspan x="9.383093" y="0.546875" style="font-size: 4.27px; font-family: 'DejaVu Sans'; fill: #4b5560">5</tspan>
      <tspan x="12.023431" y="0.546875" style="font-size: 4.27px; font-family: 'DejaVu Sans'; fill: #4b5560">}</tspan>
     </text>
    </g>
   </g>
   <g id="text_66">
    <text style="font-size: 5.7px; font-family: 'Arial', 'Helvetica', 'DejaVu Sans', sans-serif; text-anchor: start; fill: #d28a35" x="233.15362" y="324.330502" transform="rotate(-0 233.15362 324.330502)">terminal two-node atom</text>
   </g>
  </g>
 </g>
 <defs>
  <clipPath id="pb7e4c84b47">
   <rect x="21.15038" y="29.487095" width="139.503797" height="108.778378"/>
  </clipPath>
  <clipPath id="p82582e15d9">
   <rect x="21.15038" y="168.946555" width="139.503797" height="170.140541"/>
  </clipPath>
  <clipPath id="p12e1e84584">
   <rect x="229.198177" y="29.487095" width="263.696203" height="149.82095"/>
  </clipPath>
  <clipPath id="pf67d412944">
   <rect x="229.198177" y="208.263441" width="263.696203" height="15.481498"/>
  </clipPath>
  <clipPath id="p56c06fed26">
   <rect x="229.198177" y="252.700335" width="263.696203" height="41.949866"/>
  </clipPath>
  <clipPath id="pe2ce80a8b5">
   <rect x="229.198177" y="323.605597" width="263.696203" height="15.481498"/>
  </clipPath>
 </defs>
</svg>
